<?xml version="1.0" encoding="UTF-8"?>
<svg id="_レイヤー_2" data-name="レイヤー 2" xmlns="http://www.w3.org/2000/svg" viewBox="0 0 274.75 274.75">
  <defs>
    <style>
      .cls-1 {
        fill: none;
      }
    </style>
  </defs>
  <g id="_レイヤー_1-2" data-name="レイヤー 1">
    <path d="m175.85,93.01c.94,1.65,1.89,3.3,2.87,5.01,1.21-.57,2.31-1.09,3.68-1.73.46,2.56-2.08,2.86-2.35,4.7.77,1.49,1.64,3.16,2.51,4.83-.2.22-.4.45-.6.67-1.31-.55-2.61-1.09-4.18-1.75-.32,2.03-.62,3.89-.93,5.85-2.05-.17-2.73-.99-2.39-2.65.25-1.17.49-2.34.7-3.35-1.34-1.74-4.07-.64-4.85-3.24,1.29-.47,2.56-.93,4.05-1.47.11-2.22.23-4.41.34-6.6.38-.09.77-.18,1.15-.27Z"/>
    <rect class="cls-1" width="274.75" height="274.75"/>
  </g>
</svg>