<?xml version="1.0" encoding="UTF-8"?>
<svg id="_レイヤー_2" data-name="レイヤー 2" xmlns="http://www.w3.org/2000/svg" viewBox="0 0 274.75 274.75">
  <defs>
    <style>
      .cls-1 {
        fill: none;
      }
    </style>
  </defs>
  <g id="_レイヤー_1-2" data-name="レイヤー 1">
    <g>
      <path d="m24.1,132.59c-.04-1.36.11-2.41-.12-3.35-1.72-7.24,1.23-13.64,6.73-19.58,1.06-1.14,2.18-2.24,3.32-3.31,1.03-.97,1.05-1.85.31-2.76-.68-.84-1.33-1.69-2.14-2.71,5.34-2.06,10.43-4.03,15.77-6.09.68.94,1.47,2.04,2.24,3.11,4.07-.39,8.11-.77,12.29-1.17.87-1.83.25-3.63.39-5.45.11-1.49.03-3,.38-4.47.74-3.12,3.89-4.56,6.19-2.34,1.85,1.79,3.9,3.43,5.71,5.26.69.7,1.1,1.68,1.43,2.62.92,2.65-.56,4.91-3.72,5.7-1.33.33-2.7.53-4.05.69-1.24.15-2.48.16-3.82.23-.11.42-.28.78-.28,1.14-.09,6.44-2.65,12.44-6.32,18.23-.69,1.08-1.63,2.07-2.55,3.03-5.74,6.04-12.68,10.03-21.1,11.43-3.66.61-7.22.63-10.67-.19Zm8.71-22.56c-6.23,6.46-9.16,13.4-6.6,21.14,21.47,2.11,37.87-16.58,36.4-32.25-10.05-1.02-23.79,3.7-27.84,9.58.13.13.22.32.38.38.73.29,1.46.57,2.22.79,6.53,1.88,9.93,6.35,11.92,11.97.27.77.35,1.59-1.3,2.65-.62-3.82-2.44-6.77-4.81-9.43-2.58-2.89-6.51-3.72-10.38-4.84Zm41.52-18.94c-1.56-1.4-3.73-3.54-6.16-5.43-1.27-.99-2.5-.46-3.14,1.08-.3.71-.47,1.5-.48,2.23-.05,2.15.03,4.28.02,6.43,0,1.17.7,1.71,1.89,1.59,1.97-.19,3.96-.43,5.92-.86,2.32-.5,3.28-2.3,1.96-5.05Zm-25.9,7.31c-.35-1.3-1.09-1.61-2.31-1.13-.88.35-1.72.8-2.6,1.14-2.8,1.1-5.61,2.18-8.45,3.28,1.52,2.03,1.59,2.05,3.57,1.15,3.17-1.44,6.33-2.88,9.79-4.44Z"/>
      <path d="m33.53,120.25c.55,1.09.22,2.2-.8,2.68-1.06.5-2.44,0-2.97-1.07-.55-1.11-.2-2.51.75-3.04.99-.55,2.35.1,3.02,1.43Z"/>
    </g>
    <rect class="cls-1" width="274.75" height="274.75"/>
  </g>
</svg>