<?xml version="1.0" encoding="UTF-8"?>
<svg id="_レイヤー_2" data-name="レイヤー 2" xmlns="http://www.w3.org/2000/svg" viewBox="0 0 274.75 274.75">
  <defs>
    <style>
      .cls-1 {
        fill: none;
      }
    </style>
  </defs>
  <g id="_レイヤー_1-2" data-name="レイヤー 1">
    <path d="m149.95,103.68c-2.74-.07-5.33-.14-7.69-.21-1.98,1.49-.01,4.91-3.51,5.55-.6-1.66-1.26-3.27-1.77-4.93-.48-1.57-1.5-2.01-3.02-1.93-1.13.06-2.27-.08-3.97-.15.71-1.11.96-1.7,1.38-2.1.47-.45,1.1-.75,1.67-1.08,2.72-1.6,3.73-3.87,2.97-7-.27-1.1-.16-2.29-.24-3.59,2.96-.27,3.59,2.57,5.88,3.26.79-1,1.6-2.16,2.57-3.18.37-.38,1.1-.42,1.67-.61.06.58.4,1.41.13,1.71-2.92,3.38-1.98,6.02,1.11,8.76,1.37,1.22,2.79,2.85,2.81,5.49Z"/>
    <rect class="cls-1" width="274.75" height="274.75"/>
  </g>
</svg>