<?xml version="1.0" encoding="UTF-8"?>
<svg id="_レイヤー_2" data-name="レイヤー 2" xmlns="http://www.w3.org/2000/svg" viewBox="0 0 274.75 274.75">
  <defs>
    <style>
      .cls-1 {
        fill: none;
      }
    </style>
  </defs>
  <g id="_レイヤー_1-2" data-name="レイヤー 1">
    <path d="m108.01,150.92c-2.02-3.37-3.44-6.24-5.33-8.75-1.81-2.4-4.12-4.42-6.78-7.2,1.34.16,2.1.03,2.59.34,2.53,1.64,4.89,3.46,6.33,6.24.66,1.26,1.55,2.4,2.52,3.88.53-.74,1.01-1.18,1.2-1.72,3.92-11.25,10.95-20.51,18.68-29.33,1.17-1.33,2.2-2.8,3.45-4.05.4-.4,1.29-.3,1.96-.43-.06.68.13,1.58-.23,2.02-3.19,3.84-6.48,7.6-9.74,11.38-6.18,7.19-10.48,15.39-13.26,24.43-.27.87-.73,1.69-1.39,3.19Z"/>
    <rect class="cls-1" width="274.75" height="274.75"/>
  </g>
</svg>