<?xml version="1.0" encoding="UTF-8"?>
<svg id="_レイヤー_2" data-name="レイヤー 2" xmlns="http://www.w3.org/2000/svg" viewBox="0 0 274.75 274.75">
  <defs>
    <style>
      .cls-1 {
        fill: none;
      }
    </style>
  </defs>
  <g id="_レイヤー_1-2" data-name="レイヤー 1">
    <g>
      <path d="m62.63,40.42c.93-.72,1.7-1.17,2.28-1.81,4.42-4.87,9.85-6.21,15.86-5.62,1.15.11,2.3.29,3.44.5,1.02.19,1.64-.25,2.01-1.22.34-.88.71-1.76,1.14-2.82,3.26,2.49,6.38,4.86,9.64,7.35-.42.94-.9,2.03-1.38,3.1,1.67,2.51,3.33,4.99,5.04,7.57,1.56-.36,2.6-1.7,3.9-2.55,1.07-.7,2.08-1.53,3.22-2.06,2.41-1.12,4.49.24,3.75,2.91-.6,2.16-1.03,4.36-1.67,6.51-.24.82-.78,1.6-1.32,2.3-1.52,1.98-3.59,2.16-5.22.46-.69-.71-1.3-1.52-1.87-2.34-.53-.75-.96-1.57-1.47-2.42-.32.14-.64.22-.88.4-4.48,3.26-9.52,4.65-14.78,5.2-.99.1-1.99-.02-2.98-.13-6.15-.7-11.3-3.26-15.17-8.13-1.68-2.12-2.92-4.48-3.54-7.19Zm18.6-5.84c-6.61-.81-12.42.82-16.89,6.51,5.93,15.36,24.5,16.63,34.83,7.58-2.75-7.21-10.75-13.91-16.21-13.58-.05.15-.14.31-.13.45.05.63.11,1.26.22,1.88.95,5.31-.97,9.88-4.17,14.1-.44.58-.98,1.05-2.28.5,2.43-2.38,3.84-5.11,4.86-8.06,1.11-3.2.33-6.25-.23-9.4Zm27.39,17.85c.43-1.76,1.17-4.31,1.63-6.89.25-1.36-.54-1.9-1.83-1.53-.6.17-1.2.46-1.71.83-1.5,1.08-2.95,2.23-4.44,3.33-.81.6-.94,1.35-.45,2.08.81,1.21,1.66,2.41,2.63,3.49,1.15,1.29,2.72,1,4.16-1.3Zm-13.97-13.46c.78-.9.74-1.56-.01-2.12-.54-.4-1.14-.73-1.69-1.14-1.73-1.29-3.44-2.6-5.18-3.93-.88,2.05-.87,2.11.44,2.96,2.09,1.36,4.17,2.73,6.44,4.22Z"/>
      <path d="m74.4,40.33c-.56.93-1.45,1.28-2.13.85-.71-.45-.84-1.62-.28-2.53.58-.94,1.67-1.43,2.36-1.07.72.38.74,1.61.05,2.74Z"/>
    </g>
    <rect class="cls-1" width="274.75" height="274.75"/>
  </g>
</svg>