<?xml version="1.0" encoding="UTF-8"?>
<svg id="_レイヤー_2" data-name="レイヤー 2" xmlns="http://www.w3.org/2000/svg" viewBox="0 0 252.5 246.38">
  <defs>
    <style>
      .cls-1 {
        fill: #f4d8b8;
      }

      .cls-2, .cls-3 {
        fill: #f9e360;
      }

      .cls-4 {
        fill: #92c9d0;
      }

      .cls-5 {
        fill: #d22d26;
      }

      .cls-6 {
        fill: #c7af86;
      }

      .cls-3, .cls-7 {
        fill-rule: evenodd;
      }
    </style>
  </defs>
  <g id="_レイヤー_1-2" data-name="レイヤー 1">
    <g>
      <path class="cls-4" d="m.38,176.22c-.3-.06-.46-.58-.34-1.15.12-.57.46-.99.76-.92.9.18,3.03-1.54,5.49-3.54,5.03-4.08,11.92-9.67,18.26-8.06.51.13,1.05.27,1.61.42,5.3,1.41,13.3,3.54,20.76.02,2.83-1.33,5.36-3.03,7.59-4.53,4.4-2.95,8.19-5.5,12.26-4.01.69.26,1.42.53,2.16.82,5.4,2.08,12.11,4.66,16.76,1.43,2.12-1.47,3.48-2.94,4.8-4.36,2.02-2.18,3.77-4.07,7.41-5.02,6.88-1.8,9.79-.24,12.86,1.42,2.33,1.26,4.73,2.55,9.15,2.28.32-.02.52.43.45,1.01-.07.58-.39,1.06-.71,1.08-4.59.29-7.07-1.06-9.48-2.35-2.96-1.6-5.76-3.11-12.4-1.37-3.36.88-4.91,2.55-6.87,4.67-1.31,1.41-2.8,3.02-5.04,4.57-5.01,3.47-11.61.93-17.44-1.31-.74-.28-1.45-.56-2.15-.81-3.75-1.38-7.22.95-11.6,3.89-2.26,1.52-4.83,3.24-7.73,4.61-7.7,3.63-15.85,1.46-21.23.03-.56-.15-1.1-.29-1.61-.42-6-1.52-12.69,3.9-17.57,7.85-2.86,2.32-4.93,4-6.16,3.75Z"/>
      <g>
        <g>
          <g>
            <path class="cls-7" d="m141.58,181.31c-.39.56-1.08.75-1.52.44-.44-.31-.49-1.02-.1-1.58l37.25-52.89c.39-.56,1.08-.75,1.52-.44.44.31.49,1.02.1,1.58l-37.25,52.89Z"/>
            <g>
              <path class="cls-3" d="m195.56,141.87c-.08.13-.18.25-.27.38-.08.1-.15.2-.23.3-1.45,1.77-3.28,2.57-8.04,2.06-1.66-.18-2.52-.59-3.1-1.07-.14-.12-.26-.24-.38-.35-.87-.89-1.31-1.86-4.31-1.93-1.1-.02-2.12-.09-3.07-.19-.52-.05-1.03-.11-1.5-.18-2.65-.38-4.59-1.03-5.69-1.83-.49-.36-.24-1.38.49-2.74.13-.24.28-.5.44-.76.3-.5.65-1.04,1.05-1.6.16-.22.32-.46.5-.69.79-1.08,1.69-2.21,2.63-3.29.16-.18.32-.36.48-.54.95-1.08,1.92-2.09,2.83-2.95.22-.22.43-.41.65-.6.14-.13.28-.25.41-.37,1.16-.55,3.79-.62,6.43.94h0c.2.13.42.26.62.41h0c.69.48,1.38,1.08,2.03,1.82.05.06.11.12.16.19.19.21.36.43.53.63.42.5.79.97,1.12,1.4.32.42.61.81.88,1.18h0c1.04,1.41,1.79,2.51,2.93,3.57.12.12.26.24.41.37.18.15.37.31.57.47.09.07.18.14.27.21.32.24.59.47.83.68h0c1.6,1.4,1.84,2.34.31,4.48Z"/>
              <g>
                <path d="m195.24,137.39c-.92-.16-1.83-.35-2.73-.55-.23-.05-.45-.09-.69-.15-2.34-.54-4.65-1.2-6.92-1.98-.28-.09-.56-.19-.84-.29-2.22-.79-4.4-1.68-6.53-2.69-.23-.11-.45-.21-.67-.32-.94-.45-1.88-.93-2.8-1.43.16-.18.32-.36.48-.54.32.18.65.35.97.52.62.33,1.25.65,1.88.95.23.11.44.22.67.32,2.09,1.01,4.23,1.9,6.41,2.68.28.11.56.2.84.3,2.31.81,4.66,1.49,7.05,2.04.22.06.45.11.67.16.45.11.92.21,1.38.29.32.24.59.47.83.68Z"/>
                <path d="m195.56,141.87c-.08.13-.18.25-.27.38-.08.1-.15.2-.23.3-2.2-.61-4.38-1.27-6.55-1.98-.23-.07-.45-.14-.67-.22h0c-2.19-.7-4.36-1.45-6.52-2.25-.29-.1-.57-.2-.85-.31-2.47-.92-4.92-1.88-7.34-2.9h0c-.25-.11-.51-.22-.77-.33-.47-.19-.94-.4-1.4-.6.16-.22.32-.46.5-.69.61.27,1.22.53,1.84.79.25.11.51.22.76.32,2.37.99,4.76,1.94,7.17,2.83.28.11.57.21.85.31,2.14.79,4.3,1.53,6.47,2.23.21.08.43.15.65.21h0c2.11.68,4.23,1.32,6.37,1.92Z"/>
                <path d="m188.23,129.51c-.18.25-.32.54-.47.81-.09.2-.19.4-.28.58-.02.03-.04.07-.06.11-.61,1.13-1.32,2.2-2.11,3.2-.13.16-.26.33-.4.49-.86,1.02-1.82,1.96-2.84,2.81-.25.2-.5.4-.75.59-1.58,1.21-3.31,2.21-5.15,2.97-.52-.05-1.03-.11-1.5-.18.02,0,.05-.01.07-.02,2.05-.74,3.99-1.79,5.73-3.08.25-.19.5-.39.75-.59,1.03-.84,1.99-1.77,2.85-2.79.14-.16.27-.33.4-.5.19-.23.38-.47.56-.72.58-.79,1.09-1.62,1.54-2.49.07-.13.14-.25.21-.38.05-.1.1-.2.15-.29.22-.42.46-.81.77-1.14.19.21.36.43.53.63Z"/>
                <path d="m193.57,136.03c-.18.12-.36.25-.53.38-.15.11-.3.23-.44.35-.03.03-.06.05-.08.07-1.17.98-2.21,2.08-3.31,3.12h0c-.22.22-.45.42-.68.62-.44.38-.89.76-1.38,1.1-1.02.71-2.09,1.34-3.2,1.87-.14-.12-.26-.24-.38-.35,1.55-.76,2.98-1.72,4.29-2.83t0,0c.23-.2.47-.4.7-.61.29-.25.57-.52.85-.8.8-.8,1.6-1.56,2.44-2.26.18-.14.35-.29.54-.43.26-.2.53-.4.8-.59.12.12.26.24.41.37Z"/>
                <path d="m185.49,126.87c-1.23.32-2.43.74-3.55,1.33-.03.02-.08.04-.11.06-.24.13-.48.27-.7.42-1.12.72-2.08,1.63-3.06,2.54-.18.16-.35.33-.53.49-.59.55-1.2,1.08-1.85,1.57-.53.39-1.07.75-1.64,1.08-.3.19-.61.36-.92.52h0c-1.17.6-2.4,1.08-3.66,1.43.13-.24.28-.5.44-.76.83-.27,1.65-.6,2.45-.99.31-.16.63-.33.94-.51,1.22-.69,2.36-1.53,3.42-2.51.05-.05.1-.1.16-.14.18-.16.36-.33.53-.49,1-.91,1.99-1.78,3.09-2.52h0c.25-.17.51-.34.79-.5.42-.24.85-.46,1.32-.66.74-.32,1.5-.57,2.27-.78h0c.2.13.42.26.62.41Z"/>
                <path d="m190.23,132.09c-.94-.36-1.87-.73-2.81-1.08-.29-.11-.57-.21-.85-.31-.37-.14-.73-.26-1.11-.39-1.45-.48-2.93-.99-4.34-1.63-.21-.09-.43-.19-.64-.29h0c-1.1-.53-2.15-1.15-3.11-1.91.22-.22.43-.41.65-.6.99.81,2.09,1.46,3.25,2.01.22.11.44.21.66.31,1.24.55,2.53.99,3.81,1.42.39.13.78.26,1.17.4.28.1.56.2.84.3.53.19,1.07.39,1.59.59.32.42.61.81.88,1.18Z"/>
              </g>
            </g>
          </g>
          <g>
            <path class="cls-4" d="m132.09,192.12c0-5.54-3.49-10.04-7.81-10.04s-7.81,4.5-7.81,10.04c0,1.24.18,2.43.5,3.53h.74c-.18-.9-.29-1.86-.29-2.85,0-5.54,3.07-10.04,6.85-10.04s6.85,4.5,6.85,10.04c0,.99-.11,1.94-.29,2.85h.74c.32-1.1.5-2.28.5-3.53Z"/>
            <g>
              <path class="cls-4" d="m131.91,204.43c0,1.49-1.03,2.72-2.3,2.72h-10.66c-1.26,0-2.3-1.22-2.3-2.72v-9.68c0-1.49,1.03-2.72,2.3-2.72h10.66c1.26,0,2.3,1.22,2.3,2.72v9.68Z"/>
              <ellipse class="cls-4" cx="124.29" cy="193.83" rx="7.53" ry="3.21"/>
              <path class="cls-4" d="m131.82,205.3c0,1.77-3.37,3.21-7.53,3.21s-7.53-1.44-7.53-3.21,3.37-3.21,7.53-3.21,7.53,1.44,7.53,3.21Z"/>
            </g>
          </g>
          <g>
            <g>
              <path class="cls-1" d="m159.66,237.91c-.11-.21-.21-.4-.27-.59-.41-1.3-.77-30.27-1.01-31.16,0,0-5.92-.36-5.86.95.06,1.3,3.2,31.04,2.61,32.16-.13.25-.45.57-.87.93,2.08.47,3.78-.91,5.4-2.3Z"/>
              <path d="m159.66,237.91c-1.62,1.39-3.32,2.77-5.4,2.3-1.74-.65-2.63-.65-3.69.56-1.36,1.54,3.6,3.13,4.85,2.78,1.24-.36,3.86,0,5.22-1.48,1.17-1.27-.28-2.89-.97-4.15Z"/>
            </g>
            <g>
              <path d="m134.76,238.13c-1.32.7-2.73-.43-4.25.03-.68.21-.63,4.13,3.44,4.56,4.08.43,4.65-.3,5.87-2.21.83-1.3-.64-1.72-.69-2.41-1.45.31-2.97.37-4.37.03Z"/>
              <path class="cls-1" d="m145.15,204.12s-6.39-2.05-6.59-1.34c-.2.7-2.31,32.64-2.84,34.34-.14.45-.49.76-.96,1.01,1.4.35,2.92.28,4.37-.03,0-.01,0-.03,0-.04.02-.71,6.34-32.86,6.02-33.94Z"/>
            </g>
            <path class="cls-1" d="m157.31,165.05c1.62,3.04,5.06,4.46,3.12,6.76-1.15,1.36-8.44,7.12-9.55,8.09-.19.17-.56.08-.59.1-1.03,0-2.51-.26-3.84-.34-.75-.05-.43.71.14.96.71.31,1.69.49,2,.67.1.11.11.25-.08.34-1.19.59-3.67,2.19-4.15,2.55-.54.4-.87,1.21.22,1,.32-.06,1.74-.74,1.89-.58.21.23-.98,1.3-1.4,1.6-.48.35-.07,1.5.56,1.18,1.31-.67.98.39,1.92.06.31-.11.28.35.56.47.23.1.67-.41.95-.62,1.18-.31,1.51-.74,1.75-1.05.43-.55,1.4-1.87,1.72-2.55.36-.77.24-1.45,1.61-2.75.39-.37,11.17-6.1,11.86-8.65.85-3.12-2.09-10.67-3.26-10.93-4.64-1.02-6.85,1.83-5.44,3.71Z"/>
            <path class="cls-1" d="m137.85,161.71c.49.23.73.36-.15,2.55s-9.16,16.63-9.32,17.47c-.15.83.43,1.06.57,2.14.11.84-.69,2.34-1.24,2.37-.42.02-.98.36-1.28.32-.67-.09-.57-.55-.92-.7-.26-.11-.87.18-1.06.11-.46-.16-.48-.57-.62-.71-.16-.15-.61-.25-.84-.36-.4-.19-.06-1.46-.26-1.78-.32-.51-.88-.75.09-1.78,1.27-1.33,1.88-.91,2.58-1.25.7-.34.8-1.38,1.4-2.91.59-1.53,5.74-14.92,6.31-15.8.57-.88,4.75.33,4.75.33Z"/>
            <path class="cls-1" d="m142.9,147.63c.25,0,2.8-.09,3.11-.12.13.52.54,2.44.86,3.08.32.64,1.49,2.87,1.81,3.19-.57.87-7.15.84-8.42,0,.67-.32,1.87-2.5,2.07-3.43.19-.93.57-2.38.57-2.73Z"/>
            <path class="cls-5" d="m157.26,178.48c3.16,5.58,2.56,55.24,2.67,55.79.11.55-5.71,2.08-5.96,1.39-1.1-3.09-2.85-25.22-2.92-27.23-.09-2.8-.4-9.25-.51-10.07-.11-.82-1.65-2-1.87-.87-.54,2.75-8.6,38.43-8.6,38.76s-4.84-.54-5.23-.6c-.38-.05,4.53-55.04,4.86-56.13.33-1.09,17.55-1.04,17.55-1.04Z"/>
            <path class="cls-4" d="m146.29,152.84c.92-.16,1.89-1.14,2.71-1.14s3.57-.65,7.31,1.9c3.02,2.06,9.56,10.49,9.78,10.98.22.49-5.81,5.45-6.52,4.85-.71-.6-2.3-2.26-2.52-2.43-.22-.16-.44.82-.27,1.75.16.93,2.23,11.69,2.23,12.62s-2.13,1.38-4.42,1.27c-2.3-.11-7.35.18-8.28.02-.93-.16-4.02-.55-5.39.05-1.37.6-2.23-.84-2.72-.84s0-9.3,0-10.39-.2-3.37.02-4.13c.22-.77-.11-1.3-.57-.4-.43.83-.85,1.23-1.18,1.74-.3.46-5.58-3.75-5.69-4.24-.11-.49,4.38-9.19,6.01-10.35.91-.65,3.75-2.07,4.4-1.89.66.18,3.3.9,5.12.63Z"/>
            <g>
              <path class="cls-1" d="m151.36,142.61c.99-4.47.38-10.12-5.09-10.98-5.47-.86-7.23,3.87-7.97,5.23-.91,1.67,1.07,3.4-.36,5.27.48,3.3,1.01,3.81,1.49,4.48.7.96,2.52,2.48,4.3,2.81,1.42.26,3.39-.73,4.48-1.58,1.02-.81,1.68-1.63,2.2-2.46.33-.09.7-.11,1.21-.68.23-.26.63-1.17.57-1.61-.08-.55-.67-.61-.83-.49Z"/>
              <path d="m145.64,129.56c.61.14.93.11,2-.43,1.07-.54,2.3-1.06,3.56-.78,1.26.28,2.08.84,2.47,1.38.39.54,1.45,2.05,1.26,3.52-.19,1.47.09,2.46.68,3.23.59.76.68,3.98.3,4.83-.37.85-1.4,2.11-1.99,2.61s-3.34,3.5-4.57,4.08c-1.09.52-3.29,1.14-3.59.62-.63-1.09-2.03.82-3.24-.46-1.29-1.36,1.05-4.68.44-5.88-.49-.97-1.03-.78-1.49-.34-.46.44-.35-4.48-.92-3.9-.57.58-1.84,1.37-2.89.29-1.05-1.07-1.75-2.17-.67-3.78,1.08-1.61,2.39-1.64,2.59-3.15s1.01-3.12,3-2.96c1.99.16,2.35.85,3.06,1.12Z"/>
            </g>
          </g>
        </g>
        <g>
          <g>
            <path class="cls-4" d="m133.3.39c-3.34,4.02-5.48,8.96-6.2,14.14-.36,2.62-.35,5.3.04,7.92.43,2.86,1.43,5.55,2.37,8.27.98,2.84,1.8,5.76,1.55,8.8-.24,2.92-1.32,5.7-2.75,8.24-2.84,5.05-6.98,9.41-11.29,13.24-8.42,7.47-18.18,13.18-26.97,20.18-8.41,6.71-16.22,14.82-19.7,25.23-3.84,11.47-2.33,23.85-.33,35.51.26,1.49.52,2.98.79,4.48.08.47,1.06.22.97-.26-2.13-11.77-4.31-24.12-1.53-35.98,2.58-11.03,9.92-19.75,18.43-26.86,8.57-7.16,18.27-12.83,26.84-19.99,4.24-3.54,8.22-7.44,11.46-11.93,3.22-4.44,5.72-9.73,4.96-15.35-.4-2.96-1.55-5.73-2.49-8.54-.89-2.64-1.5-5.33-1.61-8.11-.21-5.33,1.14-10.71,3.87-15.29.71-1.19,1.52-2.31,2.4-3.38.4-.48-.52-.66-.82-.31h0Z"/>
            <path d="m223.23,121.48c-.7,0-1.29-.54-1.34-1.25-.69-9.7-10.28-39.05-23.16-61.19C182.58,31.26,161.25,11.05,134.59.96c-.69-.26-1.21-.47-1.16-.72.07-.36.66-.27,1.35,0,27.25,10.31,49.8,29.13,66.27,57.46,13.27,22.82,22.79,52.17,23.51,62.35.05.74-.5,1.38-1.25,1.44-.03,0-.07,0-.1,0Z"/>
          </g>
          <g>
            <g>
              <path class="cls-1" d="m223.09,90.92c.24,0,3.42.23,3.72.2.12.51.51,2.39.82,3.01.3.62,2.49,4.2,2.8,4.51-3.51,3.01-8.41,2.61-10.77-.11.64-.31,2.57-3.69,2.84-4.93.2-.91.59-2.34.59-2.68Z"/>
              <path class="cls-1" d="m231.97,84.55c1.08-4.88.42-11.04-5.55-11.99-5.97-.94-7.9,4.23-8.7,5.71-.99,1.82,1.16,3.71-.4,5.76.52,3.61,1.1,4.16,1.63,4.89.76,1.05,2.75,2.71,4.69,3.07,1.55.29,3.7-.8,4.89-1.73,1.11-.88,1.83-1.78,2.41-2.68.36-.1.77-.12,1.32-.74.26-.29.69-1.28.62-1.76-.08-.6-.73-.66-.91-.53Z"/>
              <path d="m225.72,70.29c.67.15,1.02.12,2.19-.47,1.17-.59,2.51-1.16,3.89-.85,1.38.3,2.27.92,2.7,1.5.43.58,1.59,2.23,1.38,3.84s.09,2.69.74,3.52.74,4.34.33,5.27c-.41.93-1.53,2.3-2.17,2.85-.65.54-3.64,3.82-4.99,4.46-1.19.56-3.59,1.25-3.92.68-.68-1.19-2.22.9-3.53-.5-1.4-1.49,1.14-5.11.48-6.42-.54-1.05-1.12-.85-1.63-.37-.51.48-.39-4.89-1-4.26-.62.64-2,1.49-3.16.32-1.15-1.17-1.91-2.37-.73-4.13,1.18-1.75,2.61-1.79,2.83-3.43s1.1-3.41,3.27-3.24c2.17.17,2.57.92,3.34,1.22Z"/>
              <g>
                <path class="cls-4" d="m217.34,70.56c1.14-4.3,4.63-4.42,8.6-3.57,3.96.85,6.43,5.25,7.75,7.08,1.53,2.12.35,4.96,2.32,9.12,1.02,2.16.23,5.58-1.57,6.66-1.48.88-7.09,1.63-9.34-1.12-2.25-2.75-1.61-6.47-4.75-8.53s-3.27-6.87-3.01-9.64Z"/>
                <path class="cls-4" d="m225.45,70.74c.57-1.43,1.67-1.14,3.1-1.97,1.42-.83,4.64-2.54,6.18-.57,1.54,1.98,1.52,4.49,2.03,5.68.51,1.19,2.42,2.47,3.13,3.3s.78,4,.1,4.81c-.68.81-5.03,2.95-5.58,3.31-.55.36-3.75-2.73-4.52-4.34-.77-1.61-4.84-9.21-4.43-10.22Z"/>
                <path class="cls-2" d="m223.33,73.22c-.28,5.99,5.42,9.48,10.02,11.93.16.09.68-.22.59-.26-4.6-2.44-10.27-5.91-9.98-11.89,0-.08-.63.03-.63.22h0Z"/>
              </g>
            </g>
            <g>
              <path class="cls-1" d="m244.29,236.61c-.16-.3-.3-.58-.39-.85-.6-1.87-1.11-43.53-1.45-44.81,0,0-8.52-.51-8.43,1.36.09,1.87,4.6,44.64,3.75,46.26-.19.35-.64.81-1.25,1.34,2.99.68,5.44-1.3,7.77-3.3Z"/>
              <path d="m244.29,236.61c-2.33,2-4.78,3.98-7.77,3.3-2.5-.94-3.78-.93-5.31.8-1.96,2.21,5.18,4.5,6.97,3.99,1.79-.51,5.55,0,7.51-2.13,1.68-1.83-.4-4.16-1.4-5.97Z"/>
              <path d="m207.56,239.65c-1.86,1.06-3.95-.48-6.11.25-.97.33-.71,5.96,5.16,6.39,5.88.43,6.67-.65,8.33-3.45,1.13-1.91-1-2.45-1.1-3.43-2.08.51-4.25.67-6.28.24Z"/>
              <path class="cls-1" d="m220.91,190.28s-9.29-2.64-9.54-1.62c-.26,1.02-1.79,47.02-2.47,49.49-.18.65-.67,1.12-1.33,1.5,2.03.43,4.2.27,6.28-.24,0-.02,0-.04,0-.06,0-1.02,7.58-47.53,7.07-49.07Z"/>
            </g>
            <path class="cls-4" d="m244.16,144.02c.77,1.02,4.17,50.26,3.83,51.2-.34.94-1.96.85-4.43.85s-11.16.17-11.93,0c-.77-.17-.94-.6-.85-4.26.09-3.66-3.49-25.64-3.49-26.49s-.68-3.41-1.11,1.19c-.43,4.6-2.47,25.13-2.98,26.41-.51,1.28-.77,1.19-2.56.94-1.79-.26-12.78-2.39-13.46-2.64-.68-.26-.34-1.36,0-2.9.34-1.53,4.69-41.91,5.37-42.68.68-.77,31.6-1.62,31.6-1.62Z"/>
            <path class="cls-2" d="m205.21,121c-3.77-7.21.83-13.21,1.32-14.58.64-1.79,2.16-5.47,5.58-8.55,1.94-1.6,3.61-1.14,5.74-1.63,1.95-.34,3.76-.34,3.89-.34,2.23,0,5.81-.54,6.63-.51.85.03,2.6-.33,4.35.06,2.69.11,7.48,2.33,9.81,4.25,2.92,2.4,12.16,15.64,9.5,22.42-1.51,3.86-2.57,7.55-5.32,10.12-1.39,1.3-4.66.7-4.32,4.05.34,3.35,1.6,8.65,1.6,9.95s-23.8,2.64-27.57,3.95c-3.53,1.22-3.88-.72-3.95-1.6-.48-5.96.74-15.74.86-16.87.11-1.14-5.46-5.62-8.12-10.7Z"/>
            <path class="cls-6" d="m246.63,135.52c-.34-3.35-2.58-9.88-3.22-11.2-2.96-9.02-6.45-18.12-5.89-27.57-.51-1.2-3.48-1.47-4.17-1.59-1.75-.38-3.33-.57-4.18-.6-.82-.03-.11-1.54-4.34-1.37-5.14.21-2.11.68-3.61,1.73-.1.07-.4.22-2.35.57-.39.09-3.15-.29-3.26,1.14,1.11,11.93.6,22.57-4.12,33.86-1.14,1.49.17,3.2-.23,5.03-.24,1.12-1.49,7.87-1.02,13.83.07.88,1.22,4.49,4.75,3.27,3.77-1.31,7.38,3.63,14.16,5.45,4.41,3.1,10.41,1.36,15.2,0,4.26-1.21,2.84-10.75,2.84-12.06s-.23-7.15-.57-10.5Z"/>
          </g>
        </g>
      </g>
    </g>
    <g>
      <path d="m138.83,89.49c-2.74-.07-5.33-.14-7.69-.21-1.98,1.49-.01,4.91-3.51,5.55-.6-1.66-1.26-3.27-1.77-4.93-.48-1.57-1.5-2.01-3.02-1.93-1.13.06-2.27-.08-3.97-.15.71-1.11.96-1.7,1.38-2.1.47-.45,1.1-.75,1.67-1.08,2.72-1.6,3.73-3.87,2.97-7-.27-1.1-.16-2.29-.24-3.59,2.96-.27,3.59,2.57,5.88,3.26.79-1,1.6-2.16,2.57-3.18.37-.38,1.1-.42,1.67-.61.06.58.4,1.41.13,1.71-2.92,3.38-1.98,6.02,1.11,8.76,1.37,1.22,2.79,2.85,2.81,5.49Z"/>
      <path d="m96.88,136.74c-2.02-3.37-3.44-6.24-5.33-8.75-1.81-2.4-4.12-4.42-6.78-7.2,1.34.16,2.1.03,2.59.34,2.53,1.64,4.89,3.46,6.33,6.24.66,1.26,1.55,2.4,2.52,3.88.53-.74,1.01-1.18,1.2-1.72,3.92-11.25,10.95-20.51,18.68-29.33,1.17-1.33,2.2-2.8,3.45-4.05.4-.4,1.29-.3,1.96-.43-.06.68.13,1.58-.23,2.02-3.19,3.84-6.48,7.6-9.74,11.38-6.18,7.19-10.48,15.39-13.26,24.43-.27.87-.73,1.69-1.39,3.19Z"/>
      <path d="m164.73,78.83c.94,1.65,1.89,3.3,2.87,5.01,1.21-.57,2.31-1.09,3.68-1.73.46,2.56-2.08,2.86-2.35,4.7.77,1.49,1.64,3.16,2.51,4.83-.2.22-.4.45-.6.67-1.31-.55-2.61-1.09-4.18-1.75-.32,2.03-.62,3.89-.93,5.85-2.05-.17-2.73-.99-2.39-2.65.25-1.17.49-2.34.7-3.35-1.34-1.74-4.07-.64-4.85-3.24,1.29-.47,2.56-.93,4.05-1.47.11-2.22.23-4.41.34-6.6.38-.09.77-.18,1.15-.27Z"/>
      <path d="m128.22,113.96c2.16-2.48,4.2-4.76,6.8-6.36,3.86-2.38,7.85-4.56,11.84-6.73,3.01-1.64,6.11-3.12,9.17-4.67.3-.15.58-.33.88-.45.85-.35,1.87-.67,2.16.51.11.45-.57,1.41-1.12,1.68-3.76,1.88-7.61,3.58-11.38,5.45-5.45,2.71-10.98,5.29-15.18,9.94-1.02,1.13-1.14,1.02-3.17.64Z"/>
    </g>
    <g>
      <path d="m12.98,118.4c-.04-1.36.11-2.41-.12-3.35-1.72-7.24,1.23-13.64,6.73-19.58,1.06-1.14,2.18-2.24,3.32-3.31,1.03-.97,1.05-1.85.31-2.76-.68-.84-1.33-1.69-2.14-2.71,5.34-2.06,10.43-4.03,15.77-6.09.68.94,1.47,2.04,2.24,3.11,4.07-.39,8.11-.77,12.29-1.17.87-1.83.25-3.63.39-5.45.11-1.49.03-3,.38-4.47.74-3.12,3.89-4.56,6.19-2.34,1.85,1.79,3.9,3.43,5.71,5.26.69.7,1.1,1.68,1.43,2.62.92,2.65-.56,4.91-3.72,5.7-1.33.33-2.7.53-4.05.69-1.24.15-2.48.16-3.82.23-.11.42-.28.78-.28,1.14-.09,6.44-2.65,12.44-6.32,18.23-.69,1.08-1.63,2.07-2.55,3.03-5.74,6.04-12.68,10.03-21.1,11.43-3.66.61-7.22.63-10.67-.19Zm8.71-22.56c-6.23,6.46-9.16,13.4-6.6,21.14,21.47,2.11,37.87-16.58,36.4-32.25-10.05-1.02-23.79,3.7-27.84,9.58.13.13.22.32.38.38.73.29,1.46.57,2.22.79,6.53,1.88,9.93,6.35,11.92,11.97.27.77.35,1.59-1.3,2.65-.62-3.82-2.44-6.77-4.81-9.43-2.58-2.89-6.51-3.72-10.38-4.84Zm41.52-18.94c-1.56-1.4-3.73-3.54-6.16-5.43-1.27-.99-2.5-.46-3.14,1.08-.3.71-.47,1.5-.48,2.23-.05,2.15.03,4.28.02,6.43,0,1.17.7,1.71,1.89,1.59,1.97-.19,3.96-.43,5.92-.86,2.32-.5,3.28-2.3,1.96-5.05Zm-25.9,7.31c-.35-1.3-1.09-1.61-2.31-1.13-.88.35-1.72.8-2.6,1.14-2.8,1.1-5.61,2.18-8.45,3.28,1.52,2.03,1.59,2.05,3.57,1.15,3.17-1.44,6.33-2.88,9.79-4.44Z"/>
      <path d="m22.4,106.07c.55,1.09.22,2.2-.8,2.68-1.06.5-2.44,0-2.97-1.07-.55-1.11-.2-2.51.75-3.04.99-.55,2.35.1,3.02,1.43Z"/>
    </g>
    <g>
      <path d="m51.5,26.24c.93-.72,1.7-1.17,2.28-1.81,4.42-4.87,9.85-6.21,15.86-5.62,1.15.11,2.3.29,3.44.5,1.02.19,1.64-.25,2.01-1.22.34-.88.71-1.76,1.14-2.82,3.26,2.49,6.38,4.86,9.64,7.35-.42.94-.9,2.03-1.38,3.1,1.67,2.51,3.33,4.99,5.04,7.57,1.56-.36,2.6-1.7,3.9-2.55,1.07-.7,2.08-1.53,3.22-2.06,2.41-1.12,4.49.24,3.75,2.91-.6,2.16-1.03,4.36-1.67,6.51-.24.82-.78,1.6-1.32,2.3-1.52,1.98-3.59,2.16-5.22.46-.69-.71-1.3-1.52-1.87-2.34-.53-.75-.96-1.57-1.47-2.42-.32.14-.64.22-.88.4-4.48,3.26-9.52,4.65-14.78,5.2-.99.1-1.99-.02-2.98-.13-6.15-.7-11.3-3.26-15.17-8.13-1.68-2.12-2.92-4.48-3.54-7.19Zm18.6-5.84c-6.61-.81-12.42.82-16.89,6.51,5.93,15.36,24.5,16.63,34.83,7.58-2.75-7.21-10.75-13.91-16.21-13.58-.05.15-.14.31-.13.45.05.63.11,1.26.22,1.88.95,5.31-.97,9.88-4.17,14.1-.44.58-.98,1.05-2.28.5,2.43-2.38,3.84-5.11,4.86-8.06,1.11-3.2.33-6.25-.23-9.4Zm27.39,17.85c.43-1.76,1.17-4.31,1.63-6.89.25-1.36-.54-1.9-1.83-1.53-.6.17-1.2.46-1.71.83-1.5,1.08-2.95,2.23-4.44,3.33-.81.6-.94,1.35-.45,2.08.81,1.21,1.66,2.41,2.63,3.49,1.15,1.29,2.72,1,4.16-1.3Zm-13.97-13.46c.78-.9.74-1.56-.01-2.12-.54-.4-1.14-.73-1.69-1.14-1.73-1.29-3.44-2.6-5.18-3.93-.88,2.05-.87,2.11.44,2.96,2.09,1.36,4.17,2.73,6.44,4.22Z"/>
      <path d="m63.28,26.15c-.56.93-1.45,1.28-2.13.85-.71-.45-.84-1.62-.28-2.53.58-.94,1.67-1.43,2.36-1.07.72.38.74,1.61.05,2.74Z"/>
    </g>
  </g>
</svg>