
<?xml version="1.0" encoding="UTF-8"?>
<svg id="_レイヤー_2" data-name="レイヤー 2" xmlns="http://www.w3.org/2000/svg" viewBox="0 0 326.72 235.54">
  <defs>
    <style>
      .cls-1 {
        fill: #f9e360;
      }

      .cls-2 {
        fill: #f8dbb4;
      }

      .cls-3 {
        fill: #fff;
      }

      .cls-4 {
        fill: #92c9d0;
      }

      .cls-5 {
        fill: #cdd07e;
      }

      .cls-6 {
        fill: #d22d26;
      }

      .cls-7 {
        fill: #c7af86;
      }
    </style>
  </defs>
  <g id="_レイヤー_1-2" data-name="レイヤー 1">
    <g>
      <g>
        <g>
          <g>
            <path d="m209.24,190.32c.91.22,2.03.16,2.51-.13h0c.48-.29.15-.71-.74-.95l-75.22-19.48c-2.67-.69-5.58-.84-6.43-.32h0c-.85.52.71,1.49,3.43,2.16l76.46,18.72Z"/>
            <path d="m130.58,190.32c-.91.22-2.03.16-2.51-.13h0c-.48-.29-.15-.71.74-.95l75.22-19.48c2.67-.69,5.58-.84,6.43-.32h0c.85.52-.71,1.49-3.43,2.16l-76.46,18.72Z"/>
          </g>
          <g>
            <path d="m214.39,218.19c.08.57.67.8,1.31.53h0c.64-.27,1.11-.94,1.04-1.51l-5.38-48.11c-.19-1.71-1.27-2.74-2.41-2.27h0c-1.14.47-1.85,2.26-1.6,3.94l7.03,47.42Z"/>
            <path d="m125.43,218.19c-.08.57-.67.8-1.31.53h0c-.64-.27-1.11-.94-1.04-1.51l5.38-48.11c.19-1.71,1.27-2.74,2.41-2.27h0c1.14.47,1.85,2.26,1.6,3.94l-7.03,47.42Z"/>
          </g>
          <path class="cls-2" d="m214.05,168.44c.01-.56.04-1.29,0-1.82-.06-.9-7.69-3.18-7.69-3.18-1.33-.58-2.79-1.18-3.99-1.18h-64.94c-1.19,0-2.88.8-3.99,1.18,0,0-6.84,2.37-7.01,2.44-.91.4-.74.84-.74,2.19,0,.28-.03,1.12.79,1.12l86.6.02c.93,0,.98-.26.97-.78Z"/>
          <path class="cls-7" d="m213.44,165.73c1,.65.84,1.18-.35,1.18h-86.35c-1.19,0-1.35-.53-.35-1.18l7.07-4.6c1-.65,2.79-1.18,3.99-1.18h64.94c1.19,0,2.99.53,3.99,1.18l7.07,4.6Z"/>
        </g>
        <g>
          <path d="m190.84,148.25c-.14-.42.1-.84.53-.93l6.63-1.39c.43-.09.82.19.86.63l.85,8.82c.04.44-.28.87-.71.96l-4.37.92c-.43.09-.9-.18-1.03-.6l-2.77-8.41Z"/>
          <path d="m204.61,158.42l-.32-.97c1.31-.42,2.52-1.88,3.68-4.46.74-1.64,1.1-4.45.45-5.38-.37-.54-2.1-.94-3.79.02l-.51-.89c2.03-1.16,4.39-.81,5.14.28.94,1.37.42,4.64-.36,6.39-1.31,2.9-2.67,4.49-4.3,5.02Z"/>
          <g>
            <path d="m204.11,144.71c0,1.65-2.13,2.99-4.76,2.99s-4.76-1.34-4.76-2.99,2.13-2.99,4.76-2.99,4.76,1.34,4.76,2.99Z"/>
            <path d="m202.97,143.04c0,1.13-1.62,2.04-3.62,2.04s-3.62-.91-3.62-2.04,1.62-2.04,3.62-2.04,3.62.91,3.62,2.04Z"/>
            <path d="m199.9,141.06c0,.5-.25.91-.55.91s-.55-.41-.55-.91.25-.91.55-.91.55.41.55.91Z"/>
          </g>
          <path d="m206.78,161.62c.09.79-.49,1.44-1.29,1.44h-12.27c-.8,0-1.38-.65-1.29-1.44l1.77-15.94c.09-.79.81-1.44,1.61-1.44h8.08c.8,0,1.52.65,1.61,1.44l1.77,15.94Z"/>
          <path class="cls-3" d="m197.89,144.36c-.79,0-1.45,0-1.74-.01-.06,0-.1-.07-.1-.14,0-.08.05-.14.1-.14h0c1,.03,6.05,0,6.84-.03.06,0,.1.06.11.14,0,.08-.04.14-.1.15-.56.02-3.23.04-5.11.04Z"/>
          <path d="m206.22,162.67c0,.61-3.08,1.11-6.87,1.11s-6.87-.5-6.87-1.11,3.08-1.11,6.87-1.11,6.87.5,6.87,1.11Z"/>
        </g>
        <g>
          <g>
            <ellipse class="cls-5" cx="160.31" cy="159.18" rx="22.16" ry="5.66"/>
            <path class="cls-3" d="m161.13,163.94c-3.15,0-6.55-.26-8.8-.43l-.69-.05c-2.63-.19-6.21-1.31-8.67-2.13-.11-.04-.14-.11-.05-.16.08-.05.24-.06.35-.03,2.42.81,5.94,1.9,8.46,2.09l.69.05c2.92.22,7.81.59,11.48.34,4.26-.29,8.2-.76,10.03-1.2.53-.13.97-.22,1.37-.31,1.07-.24,1.72-.38,2.5-.76.09-.05.25-.05.36,0,.1.04.11.12.01.16-.85.42-1.57.58-2.65.81-.39.09-.83.18-1.35.31-1.87.45-5.87.93-10.18,1.22-.89.06-1.85.09-2.84.09Z"/>
          </g>
          <g>
            <path class="cls-1" d="m159.73,153.18c-10.07,0-18.24,2.02-18.24,4.52,0,.99,1.28,1.9,3.46,2.64,4.52-1.3,9.04-2.63,13.56-4.17-1.64,2-1.05,4-1.51,6,.89.03,1.8.05,2.73.05,10.07,0,18.24-2.02,18.24-4.52s-8.17-4.52-18.24-4.52Z"/>
            <path class="cls-6" d="m175.15,154.78c-2.07-.98-1.22-.08-4.42-1.16-3.2-1.08-5.83-1.12-8.91-1.11-3.08.02-2.99.27-7.22.25-4.23-.02-6.2.75-7.96,1.22-2,.73-3.91,1.32-4.42,2.12-.51.81.63.3,2.17.82s.18.88,0,1.97c-.11.74.84.86,2.39.92,3.91-1.13,7.83-2.31,11.74-3.65-1.4,1.7-1.18,3.41-1.36,5.11.88-.14,1.78-.39,2.7-.57,1.94-.37,4.68,0,6.85.41,2.17.4,4.8-1.03,5.71-2.07.91-1.04,3.31-.57,4.45-2.09,1.14-1.51.36-1.21-1.71-2.19Z"/>
            <path class="cls-3" d="m147.84,155.39c-.16-.26-.01-.58.86-.71.87-.13.77-.01,1.38.18.6.2.84.42.62.67-.33.39-1,.64-1.79.43s-.98-.46-1.06-.57Z"/>
            <path class="cls-3" d="m160.59,158.89c-.16-.26-.01-.58.86-.71.87-.13.77-.01,1.38.18.6.2.84.42.62.67-.33.39-1,.64-1.79.43s-.98-.46-1.06-.57Z"/>
            <path class="cls-3" d="m166.68,154.94c-.16-.26-.01-.58.86-.71.87-.13.77-.01,1.38.18.6.2.84.42.62.67-.33.39-1,.64-1.79.43-.79-.21-.98-.46-1.06-.57Z"/>
            <path class="cls-3" d="m156.8,153.85c-.16-.26-.01-.58.86-.71.87-.13.77-.01,1.38.18.6.2.84.42.62.67-.33.39-1,.64-1.79.43-.79-.21-.98-.46-1.06-.57Z"/>
            <path class="cls-5" d="m161.4,154.68c.59-.85.73-.86,2.31-1.17,1.59-.3,2.54-.5,1.72-.05s-.57.69-1.37,1.13c-.81.44-.93.56-1.85.55-.92,0-.99-.2-.8-.47Z"/>
            <path class="cls-5" d="m166.58,157.34c1.96.05,2.01.11,3.05.74,1.04.63,1.68,1,.53.75-1.15-.26-1.61-.08-2.74-.33-1.13-.25-1.42-.28-1.63-.69-.21-.41.18-.49.79-.47Z"/>
            <path class="cls-5" d="m154.82,154.99c-1.95-.09-2-.15-2.98-.79-.98-.65-1.59-1.03-.47-.76,1.13.28,1.6.11,2.71.38,1.11.27,1.39.3,1.57.71.17.41-.22.48-.83.45Z"/>
            <path class="cls-5" d="m146.84,157.79c1.66.21,1.78.24,3.4-.27.51-.15.71-.33,0-.59s-.97-.21-2.2-.09c-1.23.12-1.36.38-2.61.5-1.25.12-.24.24,1.42.44Z"/>
          </g>
        </g>
      </g>
      <g>
        <g>
          <path class="cls-2" d="m69.61,131.76c-.9.06-1.34.38-1.73-.21-.39-.59.37-1.84-.46-2.28-.83-.44-1.14.5-1.54,1.19-.4.69-1.09,3.08-1.68,3.51-.72.53-1.08,1.5-.75,2.97.25,1.11.75,1.57,1.29,2.25.31.39.04,1.01.15,1.58.35.79,1.23,1.16,2.64,1.07.66-.06,1.39-.66,1.62-1.17.2-.36.47-.72.81-1.11.95-1.13,2.19-2.32,2.28-3.02.09-.69.15-.92-.56-1.58-.71-.66-.49-.73-.82-1.71-.33-.98-.35-1.56-1.25-1.5Z"/>
          <g>
            <g>
              <g>
                <path class="cls-6" d="m88.84,128.18c2.48-1.86,2.35-4.21,3.34-5.82-1.07-1.9-9.54-.5-14.12-.62-4.12-.11-7.64,1.38-6.33,3.22.34-.11.72-.11,1.02.04.61.3,1.22,1.52,1.83,1.22,3.35-.3,4.57.91,7.31,2.74,1.22.91,3.05.61,4.57,1.83.29.29.86.37,1.4.21.12-.82-.11-2,.98-2.82Z"/>
                <path class="cls-2" d="m86.46,130.78c-1.52-1.22-3.35-.91-4.57-1.83-2.74-1.83-3.96-3.04-7.31-2.74-.61.3-1.22-.91-1.83-1.22-.3-.15-.68-.15-1.02-.04.15.2.35.41.62.62,2.71,2.11,1.5,2.6,9.92,5.37,4.7,1.55,5.43,1.08,5.58.05-.55.16-1.11.08-1.4-.21Z"/>
                <path class="cls-3" d="m82.9,124.83c-.23-.85-.02-1.9,1.27-2.32,1.3-.42,1.15-.05,2.05.59.9.64,1.25,1.36.93,2.19-.49,1.28-1.48,2.09-2.67,1.4-1.18-.69-1.45-1.49-1.58-1.86Z"/>
              </g>
              <path class="cls-6" d="m88.84,128.18c2.48-1.86,2.35-4.21,3.34-5.82-1.07-1.9-9.54-.5-14.12-.62-4.12-.11-7.64,1.38-6.33,3.22.34-.11.72-.11,1.02.04.61.3,1.22,1.52,1.83,1.22,3.35-.3,4.57.91,7.31,2.74,1.22.91,3.05.61,4.57,1.83.29.29.86.37,1.4.21.12-.82-.11-2,.98-2.82Z"/>
              <path class="cls-2" d="m86.46,130.78c-1.52-1.22-3.35-.91-4.57-1.83-2.74-1.83-3.96-3.04-7.31-2.74-.61.3-1.22-.91-1.83-1.22-.3-.15-.68-.15-1.02-.04.15.2.35.41.62.62,2.71,2.11,1.5,2.6,9.92,5.37,4.7,1.55,5.43,1.08,5.58.05-.55.16-1.11.08-1.4-.21Z"/>
              <path class="cls-5" d="m83.81,127.09c-2.91-.09-3-.27-4.6-2.26-1.6-1.99-2.6-3.19-.86-2.41s2.4.19,4.11.95c1.71.76,2.14.83,2.49,2.16s-.22,1.6-1.13,1.56Z"/>
            </g>
            <path class="cls-3" d="m82.9,124.83c-.23-.85-.02-1.9,1.27-2.32,1.3-.42,1.15-.05,2.05.59.9.64,1.25,1.36.93,2.19-.49,1.28-1.48,2.09-2.67,1.4-1.18-.69-1.45-1.49-1.58-1.86Z"/>
          </g>
          <path class="cls-2" d="m80.86,138.85c.7-1.86.93-2.6.62-3.44-.3-.83-.82-2.9-1.1-4.15-.29-1.25.1-1.96.8-1.92.71.05.74,1.11,1.61,2.76.87,1.65,1.02.67,1.74-.04.72-.71,3.06-4.79,3.91-5.51.85-.72,1.73-1.73,2.51-1.12.78.61-.8,1.92-.64,2.63.16.72.87.42,1.99.48,1.12.06.84.71.73,1.87-.11,1.16-.42,1.21.09,2.05.51.84.33,1.09-.16,1.86-.48.77-2.62,1.94-4.38,3.07-1.75,1.14-2.75,1.95-3.07,3.77-.02.11-.06.28-.13.51-1.73-.43-3.52-.73-5.33-1.14.4-.8.68-1.39.79-1.68Z"/>
          <path class="cls-2" d="m48.2,125.1c-.28.08-3.81,1.36-4.17,1.42.03.62.18,2.88.04,3.69-.14.81-1.49,5.58-1.73,6.03,4.96,2.29,10.4.27,12.2-3.59-.82-.15-4.11-3.37-4.82-4.69-.52-.97-1.42-2.47-1.53-2.86Z"/>
          <path class="cls-6" d="m28.19,148.2c.45-8.9,13.11-12.78,14.83-17.4.45-1.22,4.04-1.36,5.25-1.74,2.4-.63,2.72-1.09,3.74,1.14.75,1.64,5.14.19,11.47,5.7,2.56,2.23,5.01,5.2,7.13,8.06,1.19,1.61,2.38,3.29,3.33,3.12,1.37-.39,2.76-6.12,4.6-8.65,2.15-2.95,3.72-.7,5.65.47,2.29,1.71,2.81,1.99,2.2,4.06-.61,2.07-1.36,6.7-5.07,11.89-1.45,2.03-4.67,3.56-5.83,3.92-5.88,1.83-7.64-2.94-8.3-2.31-.84.81,1.39,3.09,3.09,6.96,2.38,5.44,7.13,9.33,8.71,13.94,1.41,4.1-29.66,15.46-36.14,11.01-1.27-.87-2.06-12.02-2.75-15.94-.69-3.92-1.79-2.52-4.02-2.8-2.77-.34-8.61-7.16-7.89-21.43Z"/>
          <g>
            <path class="cls-2" d="m40.41,123.07c-2.62-5.13-3.67-12.18,2.7-14.96,6.38-2.78,10.02,2.42,11.35,3.83,1.63,1.74-.22,4.47,2.11,6.3.47,4.17-.02,4.95-.4,5.92-.55,1.39-2.27,3.81-4.33,4.78-1.64.77-4.36.19-5.94-.51-1.49-.66-2.56-1.45-3.46-2.29-.43,0-.89.09-1.69-.44-.37-.24-1.14-1.22-1.2-1.77-.08-.69.62-.95.86-.86Z"/>
            <path d="m48.71,116.69c.51-2.89,4.63-4.46,3.04-8.19-1.36-3.17-9.22-5.22-14.2-3.64-4.04-.16-4.1,2.75-5.58,4.24-1.48,1.48-2.04,5.19-1.6,8.11.43,2.92-.38,7.58,3.36,10.07,4.6,3.07,6.87,1.31,9.19,1.35,3.2.06,6.35-3.62,4.03-6.46-3.13-3.84,1.25-2.59,1.77-5.49Zm-15.39,3.69l-.29.07c.08-.07.17-.13.25-.2l.03.13Z"/>
          </g>
        </g>
        <g>
          <path d="m128.32,220.41c1.98.46,4.38-3.27,6.74-2.61,1.17.33,3.69,6.34-2.59,9.36-5.29,2.55-7.53,2.44-10.65.18-2.12-1.54-2.94-3.26-2.82-5.17.84-4.26,5.32-4.12,9.32-1.76Z"/>
          <path d="m67.83,228.49c.35.36.4.86.11,1.13h0c-.28.27-.8.21-1.16-.14l-29.94-29.36c-1.06-1.04-1.54-2.3-1.03-2.77h0c.51-.48,1.78.02,2.81,1.09l29.2,30.06Z"/>
          <path d="m42.74,230.88c-.22.41-.77.71-1.23.69h0c-.46-.03-.68-.37-.47-.78l17.2-34.38c.61-1.22,1.79-2.2,2.61-2.15h0c.82.05.95,1.1.29,2.31l-18.4,34.31Z"/>
          <g>
            <path d="m111.85,224.74c2,.37,4.29-3.03,6.68-2.48,1.18.28,3.96,6.17-2.18,9.46-5.18,2.78-7.42,2.76-10.63.64-2.19-1.45-3.08-3.13-3.04-5.04.66-4.29,5.09-4.77,9.18-2.58Z"/>
            <path class="cls-4" d="m92.2,188.58c3.36.87,13,19.9,17.25,27.12,4.25,7.22,3.84,9.11,1.77,10.22-6.39,3.42-7.74,4.77-9.92,1.1-4.39-7.39-13.32-20.84-16.11-27.35-2.79-6.51,0-12.91,7.02-11.08Z"/>
          </g>
          <path d="m95.71,231.19c.35.36.4.86.11,1.13h0c-.28.27-.8.21-1.16-.14l-29.94-29.36c-1.06-1.04-1.54-2.3-1.03-2.77h0c.51-.48,1.78.02,2.81,1.09l29.2,30.06Z"/>
          <path d="m70.62,233.58c-.22.41-.77.71-1.23.69h0c-.46-.03-.68-.37-.47-.78l17.2-34.38c.61-1.22,1.79-2.2,2.61-2.15h0c.82.05.95,1.1.3,2.31l-18.4,34.31Z"/>
          <path class="cls-5" d="m62.15,206.98c9.02-1.38,37.52-8.05,36.36-12.6-1.15-4.56-22.47-9.85-35.55-8.11-9.92,1.32-28.59,3.39-32.62,8.97-4.03,5.58,13.77,14.5,31.81,11.74Z"/>
          <path class="cls-4" d="m52.61,185.73c-.55,1.33,2,10.15,4.22,11.4,3.38,1.9,7.95,5.75,16.14,3.8,6.03-1.43,10.03-3.07,15.09-5.28,3.71-1.62,13.45,8.34,19.63,18.78.88,1.48,7.41,12.22,9.5,11.4,2.51-1,12.59-7.28,11.19-9.92-5.15-9.72-14.8-27.94-22.58-36.3-7.85-8.43-21.18,2.77-26.17-2.53-3.28-3.49-27.02,8.65-27.02,8.65Z"/>
          <path d="m108.66,217.08c-.09,0-.18-.04-.24-.12-.62-.88-1.46-2.06-2.4-3.38-2.45-3.44-5.51-7.73-7.11-10.24-.09-.13-.05-.31.09-.4.13-.08.31-.05.4.09,1.59,2.5,4.64,6.78,7.09,10.22.94,1.32,1.78,2.5,2.4,3.38.09.13.06.31-.07.4-.05.04-.11.05-.16.05Z"/>
          <path class="cls-5" d="m55.99,146.47c-1.17-9.57.05-8.81-10.83-7.54-17.37,2.02-25.47,1.42-25.47,4.59,0,9.4,1.56,18.48,3.59,25.96,2.03,7.48,2.11,6.12,3.17,12.87,1.07,6.86.58,13.32,4.29,19.71,2.65,4.56,25.06,5.83,33.07,3.3,8.01-2.53,32.35-7.3,18.57-7.81-11.71-.43-20.47-28.1-22.75-36.52-1.94-7.17-3.05-10.95-3.63-14.56Z"/>
        </g>
      </g>
      <g>
        <path d="m218.09,221.68c-1.98.46-4.38-3.27-6.74-2.61-1.17.33-3.69,6.34,2.59,9.36,5.29,2.55,7.53,2.44,10.65.18,2.12-1.54,2.94-3.26,2.82-5.17-.84-4.26-5.32-4.12-9.32-1.76Z"/>
        <path d="m278.58,229.75c-.35.36-.4.86-.11,1.13h0c.28.27.8.21,1.16-.14l29.94-29.36c1.06-1.04,1.54-2.3,1.03-2.77h0c-.51-.48-1.78.02-2.81,1.09l-29.2,30.06Z"/>
        <path d="m303.67,232.14c.22.41.77.71,1.23.69h0c.46-.03.68-.37.47-.78l-17.2-34.38c-.61-1.22-1.79-2.2-2.61-2.15h0c-.82.05-.95,1.1-.3,2.31l18.4,34.31Z"/>
        <path d="m250.7,232.46c-.35.36-.4.86-.11,1.13h0c.28.27.8.21,1.16-.14l29.94-29.36c1.06-1.04,1.54-2.3,1.03-2.77h0c-.51-.48-1.78.02-2.81,1.09l-29.2,30.06Z"/>
        <path d="m275.79,234.85c.22.41.77.71,1.23.69h0c.46-.03.68-.37.47-.78l-17.2-34.38c-.61-1.22-1.79-2.2-2.61-2.15h0c-.82.05-.95,1.1-.29,2.31l18.4,34.31Z"/>
        <path class="cls-5" d="m284.26,208.25c-9.02-1.38-37.52-8.05-36.36-12.6,1.15-4.56,22.47-9.85,35.55-8.11,9.92,1.32,28.59,3.39,32.62,8.97,4.03,5.58-13.77,14.5-31.81,11.74Z"/>
        <path class="cls-6" d="m293.8,186.99c.55,1.33-2,10.15-4.22,11.4-3.38,1.9-7.95,5.75-16.14,3.8-6.03-1.43-10.03-3.07-15.09-5.28-3.71-1.62-13.45,8.34-19.63,18.78-.88,1.48-7.41,12.22-9.5,11.4-2.51-1-12.59-7.28-11.19-9.92,5.15-9.72,14.8-27.94,22.58-36.3,7.85-8.43,23.02-4.47,28.49-9.29,7.86-6.91,24.69,15.41,24.69,15.41Z"/>
        <g>
          <path d="m223.46,191.07c-2-.38-2.9-4.38-5.32-4.73-1.2-.17-5.93,4.32-1.4,9.61,3.82,4.47,5.91,5.27,9.68,4.45,2.56-.55,4.01-1.8,4.66-3.6.94-4.24-3.01-6.29-7.62-5.73Z"/>
          <path class="cls-6" d="m243.65,164.23c-3.45-.4-9.08,8.82-14.68,19.29-3.95,7.39-6.88,7.1-5.35,8.88,4.72,5.51,5.48,7.25,8.84,4.62,2.93-2.29,5.81-12.43,11.78-15.15,7.84-3.57,27.07,5.38,24.85.79-2.88-5.97-18.25-17.59-25.45-18.44Z"/>
        </g>
        <g>
          <g>
            <path class="cls-5" d="m265.63,123.15c-.79-.79-3.18-1.84-5.18-2.16-1.77-.29-2.92-.26-3.86,1.29-.94,1.55-2.01,5.34-2.67,7.29-.66,1.96-1.72,2.64,1.23,4.04s4.59,2.07,6.18,1.98c1.58-.09,2.19-1.65,2.51-3.51.27-1.58,1.68-4.65,1.91-5.35.93-2.83.54-2.93-.11-3.59Z"/>
            <path class="cls-7" d="m263.13,122.3c-1.95-.88-4.24-.98-5.15-.74-.9.23-.72.55.37,1.42,1.31,1.04,4.34,2.11,5.92,1.97,1.43-.13,1.69-.58.94-1.11-.75-.52-1.12-1.1-2.08-1.54Z"/>
            <path class="cls-5" d="m264.68,127.03c-.34.84,2.23-.08,1.96,1.26-.2.97-1.15,3.79-1.47,4.38s-1.11-.01-1.75-.12c-.64-.11-.81-.14-.97.42s-.39,1.01.97,1.28,1.73.63,2.58-.5c.9-1.21,1.62-4.05,1.82-5.01.21-1.02.67-1.92-.92-2.67-1.23-.57-1.75-.2-2.22.96Z"/>
          </g>
          <path class="cls-2" d="m265.55,140.12c-.7-1.86-.93-2.6-.62-3.44.3-.83.82-2.9,1.1-4.15.29-1.25-.1-1.96-.8-1.92-.71.05-.74,1.11-1.61,2.76-.87,1.65-1.02.67-1.74-.04-.72-.71-3.06-4.79-3.91-5.51-.85-.72-1.73-1.73-2.51-1.12-.78.61.8,1.92.64,2.63s-.87.42-1.99.48-.84.71-.73,1.87.42,1.21-.09,2.05c-.51.84-.33,1.09.16,1.86.48.77,2.62,1.94,4.38,3.07,1.75,1.14,2.75,1.95,3.07,3.77.02.11.06.28.13.51,1.73-.43,3.52-.73,5.33-1.14-.4-.8-.68-1.39-.79-1.68Z"/>
          <path class="cls-2" d="m298.21,126.37c.28.08,3.81,1.36,4.17,1.42-.03.62-.18,2.88-.04,3.69.14.81,1.49,5.58,1.73,6.03-4.96,2.29-10.4.27-12.2-3.59.82-.15,4.11-3.37,4.82-4.69.52-.97,1.42-2.47,1.53-2.86Z"/>
          <g>
            <path class="cls-2" d="m306.47,127.9c-2.83,2.23-6.01,2.64-8.21,1.79-2.2-.85-3.98-2.35-5.39-4.32-1-1.87-1.37-4.28-1.28-5.22.08-.86.38-1.81.83-2.65,1.05-1.96-.39-2.48,2.68-6.07.93-1.09,5.92-5.82,11.97-3.84,5.32,1.74,5.31,15.64-.61,20.31Z"/>
            <path d="m308.31,107.36c.63.44,1,.57,2.45.52,1.45-.05,3.06,0,4.36.91,1.3.92,1.98,1.92,2.18,2.68.2.76.74,2.9-.12,4.38-.86,1.48-.99,2.68-.66,3.78.33,1.11-.99,4.59-1.78,5.31-.79.73-2.51,1.57-3.39,1.81s-3.86,4.34-6.59,3.18c-1.84-.78-3.04,1.76-4.35-.88-.67-1.34,2.05-.98,1.25-2.94-.85-2.09,3.71-1.29,3.04-3.84-.57-2.17-3.5.29-4.2,0-.67-.28-.38-1.91.12-4.13.31-1.39-.52-2.95-1.99-3.57-.88-.37-2.47-.07-3.18-1.74-.72-1.67-1.02-3.18.91-4.37,1.93-1.19,3.42-.58,4.31-2.09.89-1.52,2.51-2.84,4.68-1.7,2.18,1.14,2.29,2.06,2.97,2.7Z"/>
          </g>
          <path class="cls-1" d="m318.22,149.47c-.45-8.9-13.11-12.78-14.83-17.4-.45-1.22-4.04-1.36-5.25-1.74-2.4-.63-2.72-1.09-3.74,1.14-.75,1.64-5.14.19-11.47,5.7-2.56,2.23-5.01,5.2-7.13,8.06-1.19,1.61-2.38,3.29-3.33,3.12-1.37-.39-2.76-6.12-4.6-8.65-2.15-2.95-3.72-.7-5.65.47-2.29,1.71-2.81,1.99-2.2,4.06.61,2.07,1.36,6.7,5.07,11.89,1.45,2.03,4.67,3.56,5.83,3.92,5.88,1.83,7.64-2.94,8.3-2.31.84.81.24,4.35-3.09,6.96-4.34,3.41-7.98,4.68-11.15,8.64-2.71,3.38,29.28,27.07,38.57,16.31,1.01-1.17,2.06-12.02,2.75-15.94.69-3.92,1.79-2.52,4.02-2.8,2.77-.34,8.61-7.16,7.89-21.43Z"/>
          <path class="cls-7" d="m292.35,105.33c1.38-2.86,4.4-.2,5.57.08,1.17.28,2.5.5,3.53-.83,1.03-1.33,3.43-4.16,5.86-2.78,2.43,1.37,3.56,3.83,4.61,4.81,1.05.98,3.53,1.53,4.61,2.09,2.15,1.11,2.57,4.69,2.26,5.73-.31,1.03-2.28,3.23-2.22,4.9.05,1.35,1.72,2.38,1.88,4.28.29,3.36-1.57,4.8-3.64,4.87-4.18.15-6.73-2.2-11.09-7.32-3.4-3.99-7.34-8.41-9.58-11.25-1.04-1.32-2.39-3.32-1.78-4.59Z"/>
        </g>
        <path class="cls-5" d="m290.42,147.74c1.17-9.57-.05-8.81,10.83-7.54,17.37,2.03,25.47,1.42,25.47,4.59,0,9.4-1.56,18.48-3.59,25.96-2.03,7.48-2.11,6.12-3.17,12.87-1.07,6.86-.58,13.32-4.29,19.71-2.65,4.56-25.06,5.83-33.07,3.3-8.01-2.53-32.35-7.3-18.57-7.81,11.71-.43,20.47-28.1,22.75-36.52,1.94-7.17,3.05-10.95,3.63-14.56Z"/>
      </g>
    </g>
    <g>
      <path class="cls-7" d="m208.28,110.17c-3-2.2-7.93-4.2-7.06-8.43.59-2.89,3.91-3.78,4.37-6.51.64-3.72-1.18-3.66-1.44-6.04-.49-4.47,1.19-5.54,2.97-4.61,1.77.92,3.42,1.75,3.81,3.23.39,1.48,4.15,3.01,3.79.64-.36-2.38-1.41-2.63-.71-5.85s1.77-6.13,3.27-7.22c.82-.59,2.18.7,1.95,3.01-.23,2.3-1.32,6.74.23,7.77,1.55,1.03,2.35.6,2.58-1.71.23-2.3.73-4.92,2.03-2.98,1.3,1.94.16,2.49.56,5.06.41,2.58,1.51,6.12,2.8,3.57,1.28-2.55,2.57-3.8,3.3-1.34.73,2.46,2.28,4.39.18,5.98-2.1,1.59-4.63,1.18-3.28,4.18,1.59,3.54,3.29,1.19,3.51,5.69.2,4.08-4.03,6.52-6.21,6.86-2.18.34-6.23.09-8.46.36-2.23.27-5.37,1.51-8.17-1.66Z"/>
      <path class="cls-1" d="m211.02,107.69c-3.28-2.09-5.8-2.88-5.22-5.69.39-1.92,2.81-3.75,3.12-5.57.42-2.48.3-3.76-.53-5-1.94-2.89,1.11-3.13,2.29-2.52,1.18.61.98,1.45,1.24,2.44.26.99,3.52,1.14,3.28-.44-.24-1.58.47-1.34.94-3.48.47-2.15-.11-3.8.89-4.53.54-.4,1.44,2.08,1.29,3.61-.15,1.53-.88,4.49.15,5.17s1.83.2,2.66-1.43c.67-1.32,1.48-4.33,2.35-3.04.86,1.29-.71,2.89-.44,4.61.27,1.72-.11,3.3,1.63,1.92,1.38-1.09,2.08-2.75,2.57-1.11.49,1.64.32,1.84-1.08,2.9-1.4,1.06-1.9,1.99-1.15,4.08.74,2.09,3.49,4.71,2.38,6.35-1.11,1.64-3.46,2.86-4.91,3.08-1.45.23-4.73-.71-6.22-.53-1.49.18-3.36,1.29-5.23-.83Z"/>
      <g>
        <g>
          <path class="cls-1" d="m228.41,128.21c.1-.1.22-.21.34-.32-.83-3.36-2.71-6.04-4.76-8.63.86,2.16,2.07,5.04,2.99,7.55.35.97.66,2.16,1.43,1.4Z"/>
          <path class="cls-7" d="m228.74,127.89c.74-.71,1.62-1.56,1.1-2.41-.61-.98-2.13-4.41-3.71-6.71,0,0-1.68-3.05-3.13-2.82-.26.04.22,1.39.98,3.3,2.05,2.59,3.93,5.27,4.76,8.63Z"/>
        </g>
        <g>
          <path class="cls-7" d="m220.44,131.2c-.94-.08-1.67-.21-1.78-1.05,0,0-.85-3.94-.85-4.73,0-.8-1.56-11.68-1.56-11.68l.72-.36c1.51,5.92,3.09,11.62,4.04,17.69-.15.1-.34.15-.57.13Z"/>
          <path class="cls-1" d="m221.58,128.2c.01,1.64-.1,2.56-.56,2.88-.95-6.08-2.53-11.78-4.04-17.69l1.01-.5s1.87,6.06,2.11,7.07c.24,1.01,1.47,6.07,1.48,8.25Z"/>
        </g>
        <g>
          <path class="cls-1" d="m196.92,122.41c.19.17.39.37.59.56,4.43-3.05,7.47-7.98,10.32-13.23-2.72,2.62-6.3,6.27-9.49,9.17-1.23,1.11-2.79,2.22-1.41,3.5Z"/>
          <path class="cls-7" d="m197.51,122.97c1.29,1.25,2.85,2.72,3.84,1.3,1.14-1.65,5.39-6.13,8.02-10.3,0,0,3.65-4.66,2.74-7.56-.16-.51-1.88,1.01-4.28,3.33-2.85,5.25-5.89,10.18-10.32,13.23Z"/>
        </g>
        <g>
          <path class="cls-7" d="m216.67,112.48c.79.7.97,1.18.45,2.27-.52,1.09-3.95,8.67-4.49,9.91-1.51,3.24-2.22,6.04-2.22,6.04l-1.23-.46c2.39-6.27,4.76-12.02,6.54-18.57.33.28.67.57.95.82Z"/>
          <path class="cls-1" d="m214.33,110.42c.18.21.78.72,1.39,1.24-1.78,6.55-4.15,12.31-6.54,18.57l-1.36-.51s-.02-1.32.48-2.59c.5-1.27,3.8-12.56,4.55-14.26.76-1.7,1.2-2.78,1.48-2.45Z"/>
        </g>
        <g>
          <path class="cls-1" d="m217.14,107.75c-.27-.15-.56-.33-.85-.51-4.79,5.18-7.45,12.23-9.8,19.62,2.77-4.11,6.39-9.75,9.68-14.34,1.27-1.77,2.95-3.63.97-4.77Z"/>
          <path class="cls-7" d="m216.29,107.24c-1.87-1.13-4.12-2.44-5.02-.37-1.05,2.39-5.29,9.29-7.62,15.27,0,0-3.47,6.92-1.71,10.2.31.58,2.1-1.85,4.55-5.48,2.35-7.39,5.01-14.44,9.8-19.62Z"/>
        </g>
        <g>
          <path class="cls-7" d="m217.14,103.38c-1.49.06-2.05.49-2.16,2.39-.11,1.9-1.13,14.91-1.32,17.01-.38,5.6-1.45,9.83-1.45,9.83l1.86.68c1.4-10.3,2.47-19.93,4.83-29.96-.62.01-1.24.03-1.76.05Z"/>
          <path class="cls-1" d="m221.52,103.2c-.37.08-1.48.11-2.61.14-2.36,10.03-3.43,19.66-4.83,29.96l2.07.75s.94-1.64,1.21-3.74c.27-2.11,4.05-19.62,4.3-22.52s.44-4.71-.13-4.58Z"/>
        </g>
        <g>
          <path class="cls-7" d="m235.39,127.72c.75-1.49,1.26-2.7.49-3.6,0,0-3.32-4.74-4.14-5.44-.82-.69-10.69-12.6-10.69-12.6l-1.01.77c4.78,7.47,9.29,14.85,14.73,21.62.24-.14.45-.38.63-.75Z"/>
          <path class="cls-1" d="m231.3,126.79c1.69,1.46,2.73,2.09,3.47,1.68-5.44-6.77-9.95-14.14-14.73-21.62l-1.41,1.07s4.62,8.13,5.45,9.39c.83,1.26,4.98,7.54,7.22,9.48Z"/>
        </g>
        <g>
          <path class="cls-7" d="m218.83,106.31c1.44-.05,2.56,0,2.84,1.26,0,0,1.79,5.82,1.88,7.03.09,1.21,3.83,17.44,3.83,17.44l-1.05.68c-3.04-8.7-6.14-17.07-8.35-26.11.22-.19.5-.28.85-.3Z"/>
          <path class="cls-1" d="m217.48,111.08c-.23-2.49-.16-3.9.49-4.47,2.21,9.04,5.31,17.41,8.35,26.11l-1.47.95s-3.59-8.85-4.09-10.34c-.5-1.49-2.99-8.94-3.29-12.25Z"/>
        </g>
      </g>
      <path class="cls-3" d="m212.68,105.93c-1-1.9-1.72-2.36-1.34-4.23.26-1.28,1.55-1.56,1.76-2.77.28-1.64-.57-1.37-1.12-2.2-1.29-1.92.02-2.45.8-2.04.78.41,1.36.65,2.13.12,1.02-.69,2.25-2.31,2.94-1.71,1.09.94.04,2.46.73,2.92.68.46.59.65,1.14-.43.45-.87,1.09-.1,1.26,1.04.18,1.14-.07,2.19,1.08,1.28.91-.72,1.92.49.99,1.19s-.51,1.02-.01,2.41c.49,1.39-.57,2.09-.11,3.85.35,1.34-1.89,1.28-2.86,1.43-.97.15-2.8-1.27-3.79-1.15-.99.12-2.36,1.71-3.6.3Z"/>
      <path class="cls-7" d="m199.79,92.97c.19-.37,1.06.05,1.26.3.19.25.33.77-.28,1.09-.61.32-.64.33-.94.04-.3-.29-.46-.62-.04-1.43Z"/>
      <path class="cls-7" d="m209.21,81.24c.19-.64,1.07.12,1.27.56.2.44.35,1.34-.25,1.88-.6.54-.63.54-.94.04-.31-.5-.48-1.08-.07-2.48Z"/>
      <path class="cls-7" d="m234.02,86.06c-.49.32-.72-.95-.62-1.44s.49-1.27,1.23-1.18c.75.09.77.11.72.73-.05.62-.25,1.19-1.33,1.89Z"/>
      <path class="cls-7" d="m226.74,78.59c.19-.37,1.06.05,1.26.3.19.25.33.77-.28,1.09-.61.32-.64.33-.94.04-.3-.29-.46-.62-.04-1.43Z"/>
    </g>
    <g>
      <g>
        <path d="m47.51,20.76c2.31.1,2.98.87,3.02,3.37,0,.67.13,1.34.21,2.01,1.57-2.86,1-5.35-1.05-6.4-2.46-1.26-5.09-.52-6.65,1.93-1.78,2.8-2,6.03,2.11,8.06.82.41,1.83,1.05,2.12,1.82.65,1.74.28,3.56-.97,4.97-1.26,1.41-2.97,1.39-4.66.85-1.67-.53-2.69-1.64-2.6-3.47.06-1.09-.32-1.66-1.96-1.76.13,1.01.19,1.76.33,2.49.64,3.54,4.73,5.71,8.05,4.39,2.82-1.13,3.12-3.59,3.31-6.06.18-2.34-.53-4.16-3.04-5.09-2.13-.79-2.66-2.08-2.18-3.89.58-2.2,1.94-3.3,3.98-3.21Z"/>
        <path d="m17.53,14.52c-1.84,4.03-1.15,8.1.06,12.09.48,1.58,2.75,2.61,4.08,2.26,2.42-.64,3.92-3.88,3.06-6.49-.65,1.21-1.16,2.59-2.02,3.7-1.3,1.68-3.42,1.18-4.04-.86-.19-.63-.12-1.34-.19-2.24,2.52.29,3.53-1.24,4.19-3.24.62-1.87.56-3.72-.19-5.47-.28-.66-1.17-1.31-1.91-1.49-1.42-.35-2.46.47-3.05,1.76Zm2.81.02c.55.05,1.25.87,1.46,1.5.53,1.61-.13,3.1-1.02,4.42-.71,1.05-1.67.66-2.96.11.27-1.62.42-3.26.88-4.8.17-.56,1.12-1.28,1.64-1.23Z"/>
        <path d="m1.56,20.28c-.01-6.86-.03-13.57-.04-20.28l-.57.05c-.08.25-.21.5-.22.75-.2,5.19-.4,10.39-.54,15.58-.05,1.73-.54,3.94.3,5.09.96,1.3,3.16,1.77,4.89,2.38,2.28.8,4.62,1.49,7.1,1.17.41-1.45-.36-1.6-1.36-1.68-3.45-.3-6.73-1.16-9.56-3.06Z"/>
        <path d="m26.38,18.82c1.3.44,2.61.88,3.95,1.34-.32,2.42-.6,4.65-.9,6.88-.44,3.27-.25,5.31.69,6.76,1.51-2.2.51-4.64.85-6.91.35-2.29.63-4.59.95-6.93,1.31.15,2.21.25,3.11.35.35-2.49-2.18-1.35-2.68-2.48-.6-1.25,1.04-2.77-.78-3.96-.33,1.42-.63,2.72-.95,4.09-1.4,0-2.71,0-4.01,0-.08.28-.15.56-.23.85Z"/>
        <path d="m41.96,11.5c-1.61,1.53-2.85,4.45-3.15,7.06-.05.46.32.98.49,1.47,1.14-2.69,2.32-5.23,2.66-8.53Z"/>
      </g>
      <g>
        <path d="m21.24,52.81c.21-1.82-.85-2.03-1.98-2.22-2.21-.39-4.42-.85-6.63-1.2-.82-.13-1.68-.02-2.45-.02-.2,3.68-.41,7.18-.59,10.69-.18,3.45-1.04,6.87-.74,10.47,3.78-1.32,7.13.63,11.16.37-2.8-3.14-6.8-1.27-9.64-3.65.18-2.14.38-4.53.61-7.13,2.78.56,5.12,1.03,7.69,1.54-.09-.55-.05-1.14-.21-1.2-2.24-.84-4.52-1.61-7.24-2.56.19-2.21.39-4.41.6-6.8,3.39.62,6.42,1.17,9.44,1.72Z"/>
        <path d="m54.68,88.4c5.26-4.54,7.7-10.79,10.13-17.03.09-.24-.37-.7-.67-1.22-1.98,2.34-1.86,5.6-4.63,7.84-.39-2.75-.84-5.05-1-7.36-.08-1.12-.1-1.92-2.2-1.91.65,3.81,1.27,7.36,1.86,10.91.1.63.32,1.5.02,1.91-1.41,1.87-2.91,3.68-4.52,5.37-.74.78-2.59,1.17-1.57,2.48.89,1.16,1.87-.38,2.59-.99Z"/>
        <path d="m47.51,79.02c.92-.22,2.09-.98,2.4-1.79.62-1.6.74-3.41,1.06-5.13-.06-.02-.11-.03-.17-.05-.06-1.27.02-2.57-.21-3.8-.27-1.4-1.03-2.62-2.59-2.87-1.48-.24-2.37.76-3.06,1.88-2.04,3.33-1.5,6.79-.3,10.19.43,1.22,1.69,1.86,2.87,1.57Zm-.14-11.95c.19-.15.56-.06.97-.1.37,1.69.88,3.1.94,4.53.06,1.53-.12,3.13-.57,4.59-.39,1.26-2.07,1.3-2.82.24-1.39-1.96-.48-7.74,1.48-9.27Z"/>
        <path d="m31.67,83.37c3.8,3.11,5.03,2.55,6.33-1.83.08-.28.2-.56.23-.85.5-4.86.98-9.72,1.47-14.59-.24-.03-.49-.05-.73-.08q-1.06,1.36-1.16,3.03c-.19,2.84-.29,5.7-.62,8.52-.25,2.1-.66,4.21-2.38,6.25-1.73-1.59-3.32-3.04-5.09-4.67-.65,2.33.89,3.34,1.96,4.21Z"/>
        <path d="m32.6,65.34c.4,1,.35,2.31.12,3.4-.27,1.29-.96,2.5-1.64,4.17.87-.21,1.6-.18,1.77-.47,1.35-2.27,1.92-4.78,1.12-7.33-1.03-3.28-3.63-3.86-6.16-1.56-.26.24-.6.39-.97.62q-.13-2.3-.82-3.54c-.88,2.56-1.03,8.9,0,11.64.42-1.51.6-2.51.98-3.43.55-1.34,1.07-2.74,1.9-3.9,1.08-1.51,2.99-1.32,3.69.41Z"/>
        <path d="m78.84,83.95c.86-2.2,1.67-4.42,2.58-6.6,2.23-5.33,2.25-5.32,1.47-7.27-.38.25-.54.71-.72,1.16-1.45,3.72-2.91,7.44-4.31,11.18-.14.37.13.89.21,1.34.26.06.51.13.76.19Z"/>
        <path d="m74.36,67.07c-.56,4.11-1.13,8.21-1.62,12.33-.03.28.59.64,1.03,1.08,1-3.45,1.75-11.8,1.27-13.32-.23-.03-.45-.06-.68-.1Z"/>
        <path d="m40.43,60.95c.12-2.14-.62-3.87-2.38-5.1-.02,2.09.51,3.92,2.38,5.1Z"/>
        <path d="m71.59,86.62c1.35-1.27,1.06-2.32.35-3.66-1.29,1.11-1.52,2.1-.35,3.66Z"/>
      </g>
    </g>
  </g>
</svg>