<?xml version="1.0" encoding="UTF-8"?>
<svg id="_レイヤー_2" data-name="レイヤー 2" xmlns="http://www.w3.org/2000/svg" viewBox="0 0 88.02 91.51">
  <defs>
    <style>
      .cls-1 {
        fill: #f9e360;
      }

      .cls-2 {
        fill: #f8dbb4;
      }

      .cls-3 {
        fill: #fff;
      }

      .cls-4 {
        fill: #92c9d0;
      }

      .cls-5 {
        fill: #d22d26;
      }
    </style>
  </defs>
  <g id="_レイヤー_1-2" data-name="レイヤー 1">
    <g>
      <path class="cls-2" d="m74.31,38.98c-.58-.25-.8-.31-.68-.66.13-.35.31-.71-.09-.85-.41-.14-1.15-.43-1.55-.28-.4.16-1.06-.85-1.35-1.09-.39-.42-.92-1.21-1.26-1.55-.98-.97-3.33-4.34-4.09-5.32-1.21-1.56-1.62-3.63-2.23-5.9-.44-1.66-.8-2.95-1.15-3.52-.41-.81-1.87,1.75-2.98,4.01-1.01,2.05-.03,3.63,2.18,6.19,2.98,3.44,4.83,4.85,7.1,6.73.08.07,1.05.91,1.37,1.28.19.22.3.82.27,1.46-.03.64-.25,1.56.78,1.93,1.02.37,1.15.79,1.48.67.33-.12.89-.11.96-.39.08-.28.5-.31.74-.42.24-.11.66-.24.65-.65,0-.42.28-.49.36-.67.08-.19.08-.72-.51-.97Z"/>
      <g>
        <g>
          <path d="m38.86,70.96c.9,1.02,2.79,1.89,3.6,3.09,1.1,1.64,1.78,3.82-1.84,2.86-3.62-.96-6.47-4.17-6.85-5.57-.37-1.36,1.11-1.26,1.37-1.83,1.14.74,2.42,1.29,3.73,1.45Z"/>
          <path class="cls-2" d="m37.19,62.75s3.39.2,3.33.87c-.06.67-2.05,4.53-2.15,6.16-.03.43.17.81.49,1.18-1.31-.16-2.58-.71-3.73-1.45,0-.01.01-.02.02-.04.21-.61,1.41-5.91,2.04-6.73Z"/>
        </g>
        <path class="cls-5" d="m50.47,42.5c-.02-1.61-5.08-4.15-5.64-2.82-1.06,2.53-6,15.54-7.09,18.78-1.59,4.69-2.89,6.75-2.76,7.14.28.83,3.92,2.25,5.06,2.16.95-.08,3.43-5.83,4.4-8.08,1.54-3.55,6.07-12.28,6.03-17.18Z"/>
      </g>
      <g>
        <path class="cls-4" d="m39.2,78.8c-.25.47-.96.58-1.58.25l-6.61-3.58c-.61-.33-.91-.99-.65-1.46l.52-.96c.25-.47.96-.58,1.58-.25l6.61,3.58c.61.33.91.99.65,1.46l-.52.96Z"/>
        <g>
          <rect class="cls-1" x="57.48" y="74.88" width="28.71" height=".87"/>
          <rect class="cls-1" x="57.48" y="74.88" width="28.71" height=".87" transform="translate(-32.22 72.85) rotate(-45)"/>
          <rect class="cls-1" x="57.48" y="74.88" width="28.71" height=".87" transform="translate(-3.48 147.15) rotate(-90)"/>
          <rect class="cls-1" x="57.48" y="74.88" width="28.71" height=".87" transform="translate(69.37 179.36) rotate(-135)"/>
          <path class="cls-4" d="m71.91,59.27c-8.9,0-16.11,7.21-16.11,16.11s7.21,16.11,16.11,16.11,16.11-7.21,16.11-16.11-7.21-16.11-16.11-16.11Zm0,28.74c-6.97,0-12.62-5.65-12.62-12.62s5.65-12.62,12.62-12.62,12.62,5.65,12.62,12.62-5.65,12.62-12.62,12.62Z"/>
        </g>
        <path class="cls-4" d="m71.31,53.44c-2.31,0-4.19,1.08-4.19,2.41s1.88,2.41,4.19,2.41c.13,0,.26,0,.39-.01v-4.79c-.13,0-.26-.01-.39-.01Z"/>
        <g>
          <polygon class="cls-1" points="64.6 51.9 65.86 51.58 72.39 74.7 71.19 75.04 64.6 51.9"/>
          <path class="cls-4" d="m73.04,74.94c0,.77-.63,1.4-1.4,1.4s-1.4-.63-1.4-1.4.63-1.4,1.4-1.4,1.4.63,1.4,1.4Z"/>
        </g>
        <g>
          <rect class="cls-1" x="1.68" y="74.89" width="28.71" height=".87" transform="translate(-12.84 3.93) rotate(-10)"/>
          <rect class="cls-1" x="1.68" y="74.89" width="28.71" height=".87" transform="translate(-54.87 45.26) rotate(-55)"/>
          <rect class="cls-1" x="1.68" y="74.89" width="28.71" height=".87" transform="translate(-55.37 104.2) rotate(-100)"/>
          <rect class="cls-1" x="1.68" y="74.89" width="28.71" height=".87" transform="translate(-14.04 146.23) rotate(-145)"/>
          <path class="cls-4" d="m13.32,59.52c-8.76,1.55-14.62,9.9-13.07,18.67,1.55,8.76,9.9,14.62,18.67,13.07,8.76-1.55,14.62-9.9,13.07-18.67-1.55-8.76-9.9-14.62-18.67-13.07Zm4.99,28.3c-6.87,1.21-13.41-3.37-14.62-10.24-1.21-6.87,3.37-13.41,10.24-14.62,6.87-1.21,13.41,3.37,14.62,10.24,1.21,6.87-3.37,13.41-10.24,14.62Z"/>
        </g>
        <path class="cls-1" d="m39.24,53.84l-23.61,21.77c.25.31.46.68.7,1.04l23.75-21.9-.84-.91Z"/>
        <rect class="cls-1" x="38.15" y="43.78" width="2.95" height="27.2" transform="translate(-15.58 14.78) rotate(-17.71)"/>
        <path class="cls-4" d="m44.14,44.28c0,.18-.27.35-.62.38l-12.02,1.07c-1.35.12-2.57-.09-2.57-.48v-3.59c0-.39,1.22-.6,2.57-.48l12.02,1.07c.35.03.62.2.62.38v1.64Z"/>
        <path class="cls-1" d="m48.13,74.13l-32.12.43c-.02.4-.11.81-.17,1.24l32.31-.43-.02-1.24Z"/>
        <path class="cls-1" d="m66.64,54.75l-27.66.7c-.04.35-.13.71-.2,1.09l27.82-.7.04-1.08Z"/>
        <path class="cls-1" d="m66.19,55.55l-24.57,20.69c.23.32.43.7.65,1.07l24.71-20.81-.8-.95Z"/>
        <path class="cls-1" d="m65.08,53.62c-.31-1.13-1.69-5.6-2.6-8.55-.45-1.44-.77-2.48-.83-2.7-.14-.48.04-.82.15-.98.44-.6,1.31-.64,3.74-.69,1.35-.02,2.53,0,3.48,0,.85.01,1.53.02,2.05,0l.06,1.46c-.56.02-1.25.01-2.12,0-.94-.01-2.11-.03-3.43,0-.83.01-1.9.03-2.42.12.14.46.41,1.33.73,2.35.92,2.96,2.3,7.44,2.62,8.6l-1.41.38Z"/>
        <path class="cls-4" d="m73.19,47.17c-.24,0-.48-.1-.64-.3-.29-.35-.24-.88.11-1.17,1.11-.92,1.65-1.61,1.31-2.59-.25-.73-1.35-1.01-3.58-.91-.44.02-.85-.34-.87-.79-.02-.46.34-.85.79-.87,2.21-.1,4.55.07,5.22,2.03.77,2.26-.98,3.71-1.83,4.41-.16.13-.34.19-.53.19Z"/>
        <path class="cls-4" d="m17.51,75.39c0,.77-.63,1.4-1.4,1.4s-1.4-.63-1.4-1.4.63-1.4,1.4-1.4,1.4.63,1.4,1.4Z"/>
        <g>
          <circle class="cls-4" cx="44.82" cy="73.62" r="6.2" transform="translate(-38.93 53.26) rotate(-45)"/>
          <g>
            <path class="cls-3" d="m45.57,69.7v3.22h3.22c-.11-1.73-1.49-3.11-3.22-3.22Z"/>
            <path class="cls-3" d="m44.08,69.7v3.22h-3.22c.11-1.73,1.49-3.11,3.22-3.22Z"/>
            <path class="cls-3" d="m44.08,77.54v-3.22h-3.22c.11,1.73,1.49,3.11,3.22,3.22Z"/>
            <path class="cls-3" d="m45.57,77.54v-3.22h3.22c-.11,1.73-1.49,3.11-3.22,3.22Z"/>
          </g>
        </g>
        <path class="cls-4" d="m55.76,76.01c-.22.49-.92.65-1.55.36l-6.84-3.1c-.63-.29-.97-.92-.75-1.41l.45-.99c.22-.49.92-.65,1.55-.36l6.84,3.1c.63.29.97.92.75,1.41l-.45.99Z"/>
        <ellipse class="cls-4" cx="65.55" cy="52.6" rx="2.49" ry="1.35"/>
      </g>
      <g>
        <g>
          <path class="cls-2" d="m48.04,65.91c.11-.18.21-.36.27-.53.42-1.18,1.59-6.59,1.83-7.4,0,0,3.73,0,3.63,1.19-.1,1.19-2.14,7.09-1.64,8.14.11.23.39.53.76.88-1.92.36-3.42-.96-4.86-2.29Z"/>
          <path d="m48.04,65.91c1.43,1.33,2.94,2.65,4.86,2.29,1.34,1.25,3.96,3.08,4.9,4.22,1.19,1.46-1.37,1.84-2.5,1.48-1.12-.37-7.1-2.82-8.29-4.22-1.02-1.2.36-2.63,1.04-3.76Z"/>
        </g>
        <path class="cls-5" d="m38.73,29.15c-.09.21-4.46,6.02-2.91,9.77,1.1,2.66,2.57,3.23,4.68,3.94,1.29.43,12.8,1.01,11.8,4.27-2.6,8.45-3.56,11.53-4.38,14.28-.75,2.51,5.49,3.31,6.01,1.75,1.13-3.38,4.63-11.52,5.76-15.16.93-2.99,1.21-3.64-.13-6.26-1.03-2.02-1.5-1.38-5.26-5.64-3.08-4.66-3.08-5.09-5.79-5.64-4.41-.22-9.77-1.32-9.77-1.32Z"/>
        <path class="cls-2" d="m64.19,10.02c-.14-.06-2.35-.94-2.52-1.04-.14.19-.38,1.48-.96,2.21-.66.83-2.47,1.99-3.51,2.4-1.07.41.8,2.39,1.25,3.41.79,1.83,3.06,5.06,4.04,3.67.17-.24.62-2.52.4-3.63-.09-.43-.34-1.12-.42-2.38-.05-.71.97-2.85,1.02-3.07.13-.61.61-1.36.7-1.57Z"/>
        <path class="cls-4" d="m37.9,28.99c3.3-.98,7.23-4.29,9.66-6.51,1.24-1.13,4.47-5.87,6.88-7.93,2.35-2.02,3.25-2.11,4.68-2.34,1.39-.23,1.17,2.34,1.68,3.25,1.24,2.23,2.22,1.05,2.26,1.94.16,1.62-.4,3.22-.95,6.39-.27,1.51-3.53,5.33-3.72,6.06-.17.6-3.35,6.19-5.18,5.98-2.77-.28-5.71-.47-7.93-1.02-4.35-1.09-8.97.02-11.02-1.67-1.12-.92.78-3.28,3.66-4.13Z"/>
        <path class="cls-2" d="m59.54,25.94c.77,2.22,1.34,4.25,2.66,5.72.83.92,3.42,4.11,4.47,5.01.62.52,1.45,1.57,2.17,1.69.28.13.96.11,1.19.07.4-.07,1.36-.14,1.94-.17.58-.03.87.2.79.51-.08.31-.55.24-1.35.5-.8.26-.38.4-.12.78.26.38,1.89,1.74,2.15,2.17.26.44.64.91.3,1.21-.33.3-.79-.51-1.12-.49-.33.02-.26.35-.37.85-.12.5-.38.32-.89.18-.51-.14-.5-.28-.92-.12-.42.16-.51.06-.82-.21-.31-.27-.66-1.32-1.03-2.19-.13-.31-.25-.57-.39-.79-.42-.6-1.64-1.1-2.14-1.46-2.41-1.71-3.46-2.7-8.18-6.33-2.67-2.07-3.11-4.09-1.13-6.08,1.87-1.88,2.23-2.47,2.79-.85Z"/>
        <path d="m49.86,8.72c.12.52.19,1.53.43,2.02.24.48.5,1.01,1.01,1.29.8.45,1.25.55,1.78.42.47-.11,1.4-1.03,1.65-1.8.45-.97,1.23-1.06,1.76-1.11.75-.08,1.83.48,1.86-.04.08-1.54-.63-2.01-1.5-2.15-2.81-.46-2.15,2.49-3.9,2.3-1.74-.2-1.8-.47-3.09-.92Z"/>
        <path class="cls-2" d="m58.43,9.67c.75,1.5,2.05,2.34,3.19,2.45,1.14.11,2.24-.13,3.28-.65.84-.56,1.52-1.47,1.68-1.87.15-.37.22-.82.21-1.26-.03-1.02.71-.94.14-3.05-.17-.64-1.32-3.62-4.39-4.07-2.69-.4-5.69,5.31-4.12,8.46Z"/>
        <path d="m67.29,4.2c-.03-.45-.61-1.56-1.52-2.03-1.12-.59-1.04-1.42-2.28-1.78-1.74-.5-3.5-.26-4.15.05-1.39.66-1.93,1.29-2.2,2.09-.27.79-1.38,5.46,2.28,8.54.59.49,1.06.59,1.44-.79-.16-.98-.67-2.17-.44-2.53.23-.36.8-.18,1.09.1.74.71.63.37,1.43-.75.98-1.36,4.63-.36,4.35-2.89Z"/>
        <path class="cls-1" d="m55.31,6.35c.64,1.58,1.46,2.48,3.02,1.29,1.16-.89,2.17-2.19,3.99-2.67,1.79-.48,3.8-.93,4.32-1.12.61-.22.6-.55-.04-1.46C65.52.82,63.2-.04,61.26,0c-2.16.05-4.11.59-5.23,2.34-.91,1.42-1.22,2.76-.71,4.01Z"/>
        <path class="cls-3" d="m57.46,4.9c-.07,0-.13-.03-.17-.09-.06-.1-.04-.22.06-.29,1.25-.85,2.95-1.36,5.18-1.56,1.38-.12,2.08-.18,2.91-.13.11,0,.2.11.19.22,0,.11-.12.2-.22.19-.81-.05-1.49,0-2.85.13-2.16.19-3.79.68-4.99,1.49-.04.02-.08.04-.12.04Z"/>
        <path class="cls-3" d="m64.48,1.83s-.05,0-.08-.02c-1.36-.57-3.32-.34-4.36-.16-.11.02-.22-.05-.24-.17-.02-.11.05-.22.17-.24,1.09-.2,3.13-.44,4.6.18.11.04.16.17.11.27-.03.08-.11.13-.19.13Z"/>
      </g>
    </g>
  </g>
</svg>